<svg id="Layer_1" data-name="Layer 1" xmlns="http://www.w3.org/2000/svg" viewBox="0 0 236 236"><defs><style>.cls-1{fill:#414645;}</style></defs><title>Artboard 1</title><path class="cls-1" d="M206.3,164.79l-1.11-3.61L203,157.29l-2.78-2.78-1.11-.55v-7.78l.28-12.49V110.36l-.28-24.15-.55-22.5L198,50.94l-.28-1.39-.83-1.94-1.94-1.67-3.61-.55L178,44.55,159.37,44h-16.1l-12.5-.28h-26.1L91.07,44H69.68l-20.54.83-12.78.56-1.66.27L33,46.5l-1.67,2.22-.83,3.89L30.25,59l-.83,29.16v49.43l.28,11.66.55,17.22.56,13,.28,1.11.55.55.28,7.78L32.2,192l.27.56,1.12.55h4.72l.27,2.22L39.69,197H48.3l.56-.56.55-3.33h130v1.95l.83,1.94h8.89l.55-.56.83-3.33h4.45l.83-.28.83-.83.28-6.66.56-.28,3.61-2.78,2.5-3.05,1.66-2.78,1.11-3.89.28-3.88ZM46.36,194h-5v-1.12h5l.28.28Zm141.06,0h-5.28l.28-1.12h5Zm16.11-20.83-1.12,2.5-2.22,3.61-3.05,3.05-3,1.9a3.63,3.63,0,0,1-.33,1.78,3.72,3.72,0,0,1-.19.8l.44,0v3.05l-.27.56H34.7V182.4a5.43,5.43,0,0,1-.68-2.8l-.43-.09-.28-2.5-.56-17.22-.55-20.27V89l.27-10.55.84-25.82.28-1.67.83-1.67,1.39-1.11,2.5-.27h7.22l1.94-.28,4.72-.28,8.89-.28c11.74-.14,23.48-.43,35.23-.58,8.22-.1,16.44-.25,24.66-.25h7l28.6.56,18.32.55,18.05.83,1.39,1.11.84,1.67.55,11.11.56,21.66.27,21.93v25.27l-.27,15.83v8l2.49,2,1.95,2.22,1.66,2.77,1.39,3.89.28,3.33Z"/><path class="cls-1" d="M51.63,65.38H175.76l.55.55v94.42l-.55.27-106.08.28H56.36l-5-.28-.28-1.94V66.21Zm1.67,1.67-.28.27V159H174.37l.28-.28V67.32l-.28-.27Z"/><path class="cls-1" d="M189.92,159l3.33.28,2.78,1.38,1.66,1.39,1.67,2.5.83,2,.28,3-.55,3.05-1.12,2.23L198,175.9h-.55v.55l-2.22,1.67-3.34,1.11h-3.05l-3.61-1.11-2.78-2.5-1.66-2.78-.56-1.39-.28-3.33.84-3.05,1.66-2.5,2.5-2.22,2.5-1.11Zm-1.67,1.94-2.5,1.11-1.38,1.11-1.67,2.5-.56,1.39-.27,2.78.55,2.5,2.22,3.05,2.78,1.67.83.27h3.89l2.5-1.11,2.22-1.94,1.11-1.67.56-1.94v-3.05l-1.11-2.78-1.95-2.22-2.5-1.39-1.11-.28Z"/><path class="cls-1" d="M58,181a7,7,0,1,1,7-7A7,7,0,0,1,58,181Zm0-12a5,5,0,1,0,5,5A5,5,0,0,0,58,169Z"/><path class="cls-1" d="M191.88,78.88H181.12V70.12h10.76Zm-9-1.76h7.24V71.88h-7.24Z"/><path class="cls-1" d="M191.88,92.88H181.12V84.12h10.76Zm-9-1.76h7.24V85.88h-7.24Z"/><path class="cls-1" d="M191.88,106.88H181.12V98.12h10.76Zm-9-1.76h7.24V99.88h-7.24Z"/><rect class="cls-1" x="89" y="171" width="2" height="8"/><rect class="cls-1" x="103" y="171" width="2" height="8"/><rect class="cls-1" x="117" y="171" width="2" height="8"/><rect class="cls-1" x="131" y="171" width="2" height="8"/><rect class="cls-1" x="145" y="171" width="2" height="8"/><rect class="cls-1" x="89" y="170" width="58" height="1.54"/><rect class="cls-1" x="89" y="178.5" width="58" height="1.54"/><polygon class="cls-1" points="166.85 46.98 159.85 35.07 65.97 35.07 60.65 46.84 57.92 45.6 64.03 32.07 161.57 32.07 169.44 45.46 166.85 46.98"/></svg>