<svg id="Layer_1" data-name="Layer 1" xmlns="http://www.w3.org/2000/svg" viewBox="0 0 236 236"><defs><style>.cls-1{fill:#3e4445;}</style></defs><title>Artboard 1 copy 9</title><path class="cls-1" d="M193.66,172.51a3.07,3.07,0,0,1-.86-.11,4.87,4.87,0,0,1-2.86-2.76q-2.64-5.12-5.24-10.24c-1.45-2.84-2.89-5.67-4.35-8.5q-4.9-9.53-9.85-19l-2.33-4.45c-1.14-2.17-2.28-4.33-3.4-6.51l-.17-.34a2.47,2.47,0,0,0-.38-.65c-.81,0-1.58,0-2.32,0a10,10,0,0,0-4.18.37,1.78,1.78,0,0,1-1.6-.12,4.57,4.57,0,0,0-1.69-.25H89.25a4.37,4.37,0,0,0-2.26.29,1.66,1.66,0,0,1-1.79-.06,4.35,4.35,0,0,0-1.64-.23c-1.74,0-3.54,0-5.51,0a5.34,5.34,0,0,1-4.13-1.74q-3.4-3.78-6.84-7.53L62.85,106,44.49,85.74,32.44,72.45q-2.8-3.06-5.57-6.16A4.33,4.33,0,0,1,27,60.23a5.29,5.29,0,0,1,.9-.71,7.57,7.57,0,0,1-.42-.67,4.88,4.88,0,0,1,.1-5.09,4.41,4.41,0,0,1,4.85-1.49,6.3,6.3,0,0,1,2.75,2.22l.13.15c1.48,1.78,3.08,3.53,4.64,5.22.66.72,1.33,1.44,2,2.17l6.64,7.34q6.47,7.14,12.93,14.27l2,2.22c5.25,5.79,10.67,11.77,16.06,17.59.19.2.37.42.55.64,1,1.2,1.33,1.45,2.23,1a1.88,1.88,0,0,1,1.78.36,2.34,2.34,0,0,0,1.33.21h80.12a3.47,3.47,0,0,0,.82-.06,7.13,7.13,0,0,1,5.69,1.16,3.57,3.57,0,0,1,1.56,2.35,2.81,2.81,0,0,0,.24.68c.73,1.32,1.41,2.68,2.07,4,.34.7.69,1.4,1.05,2.09l21.49,41.73c.32.64.64,1.28.95,1.92a31.59,31.59,0,0,0,2.92,5.17,4.88,4.88,0,0,1,.68,4.59,4.16,4.16,0,0,1-2,2.56,4.88,4.88,0,0,1-3.8,0,4.74,4.74,0,0,1-.52-.24,1.85,1.85,0,0,0-.26-.12A5.23,5.23,0,0,1,193.66,172.51Zm-29.45-54.88a2.79,2.79,0,0,1,2.47,2l.14.28c1.11,2.17,2.25,4.33,3.38,6.49.78,1.49,1.57,3,2.34,4.46q5,9.51,9.85,19l4.36,8.51q2.61,5.13,5.23,10.23c.49.94,1,1.48,1.42,1.6a2.3,2.3,0,0,0,1.63-.44,9.6,9.6,0,0,0-.79-1.79l-.19-.37q-6.57-12.79-13.12-25.61l-8.24-16.12-2.21-4.24c-1.08-2.06-2.19-4.19-3.25-6.31-.38-.76-.72-1-1.85-1h0l-41.66,0q-21.25,0-42.49,0h0A6.67,6.67,0,0,1,75.83,112q-5.49-6.1-11-12.15l-5.64-6.2L53.55,87.5C46.54,79.8,39.3,71.83,32.23,64c-.5-.55-1-1.05-1.63-1.58-.39-.35-.78-.71-1.16-1.08l-.05,0a4.39,4.39,0,0,0-.7.51,2,2,0,0,0-.1,2.93c1.83,2.07,3.69,4.11,5.55,6.15L46.2,84.2q9.16,10.13,18.35,20.24l4.23,4.65q3.43,3.76,6.85,7.54a3.11,3.11,0,0,0,2.45,1c1.94,0,3.72,0,5.44,0A6.78,6.78,0,0,1,86,118l.17.08a6.72,6.72,0,0,1,3.16-.44h65.11a7.15,7.15,0,0,1,2.44.36l.21.09a12.31,12.31,0,0,1,4.93-.45c.72,0,1.4.06,2.07,0Zm33.1,51.74a4.19,4.19,0,0,1,.51.24l.2.1a2.77,2.77,0,0,0,2,.1,1.89,1.89,0,0,0,.87-1.2,2.61,2.61,0,0,0-.34-2.51,34.66,34.66,0,0,1-3.14-5.53c-.3-.63-.61-1.26-.93-1.88L175,117c-.36-.7-.71-1.4-1.06-2.11-.64-1.29-1.31-2.63-2-3.9a5.13,5.13,0,0,1-.45-1.18c-.17-.6-.25-.83-.54-1a4.83,4.83,0,0,0-3.91-.91,5.25,5.25,0,0,1-1.41.14h-80a4.47,4.47,0,0,1-2.68-.6c-2.33.79-3.68-.85-4.51-1.85-.16-.19-.31-.38-.47-.55-5.39-5.83-10.82-11.81-16.07-17.6l-2-2.22q-6.47-7.12-12.92-14.27l-6.65-7.35c-.65-.72-1.31-1.44-2-2.15-1.58-1.71-3.21-3.48-4.72-5.31L33.44,56a4.12,4.12,0,0,0-1.72-1.5,2.12,2.12,0,0,0-2.27.69,2.69,2.69,0,0,0,.08,2.59,12.21,12.21,0,0,0,2.61,2.94,24.43,24.43,0,0,1,1.8,1.74C41,70.29,48.25,78.25,55.25,86l5.61,6.18,5.64,6.19c3.69,4.05,7.38,8.09,11,12.16A4.41,4.41,0,0,0,81.21,112l42.49,0q20.83,0,41.66,0h0a3.87,3.87,0,0,1,3.91,2.3c1.05,2.11,2.14,4.19,3.23,6.28.74,1.42,1.48,2.83,2.21,4.26L183,140.92l13.11,25.61.19.36A10.78,10.78,0,0,1,197.31,169.37Zm-114-62.13h0Z"/><path class="cls-1" d="M84.51,186.71a2,2,0,0,1-1.27-.41c-1.15-.91-3.08-2.43-2.63-5.2a10.57,10.57,0,0,0,0-2.32,7.12,7.12,0,0,1,2-5.4,7.32,7.32,0,0,1,5.66-2.29c2.42.06,4.89,0,7.29,0h4.81a6.47,6.47,0,0,0,2.26-.35,1.23,1.23,0,0,1,.46-.07,1.13,1.13,0,0,1,.62.14,3.57,3.57,0,0,0,1.77.28h21.45c2.13,0,4.33,0,6.5,0,1.43.05,2.9,0,4.32,0,1.63-.05,3.32-.11,5,0,2.9.14,5.87.11,8.74.08,1.26,0,2.53,0,3.79,0a6.93,6.93,0,0,1,7.11,5.92,26.31,26.31,0,0,1,.06,5.32l0,.37a4.65,4.65,0,0,1-4.27,4H84.87ZM88,173.39a5.08,5.08,0,0,0-3.8,1.56,4.87,4.87,0,0,0-1.33,3.65,12.53,12.53,0,0,1,0,2.87c-.2,1.19.36,1.88,1.68,2.94h.12l.37,0h73.06a2.43,2.43,0,0,0,2-1.79l0-.38a25.31,25.31,0,0,0,0-4.85,4.64,4.64,0,0,0-4.84-4c-1.26,0-2.51,0-3.77,0-2.9,0-5.91.06-8.87-.08-1.6-.07-3.24,0-4.83,0s-3,.09-4.46,0c-2.13-.06-4.31-.05-6.42,0H105.44a6.34,6.34,0,0,1-2.46-.36,9.7,9.7,0,0,1-2.75.36c-1.57,0-3.14,0-4.71,0-2.41,0-4.9,0-7.35,0Z"/><path class="cls-1" d="M167.83,107.46a1.15,1.15,0,0,1-1.15-1.09,11.88,11.88,0,0,0-2.33-7.05,9.72,9.72,0,0,0-8-4.15c-15.57,0-31.41,0-46.72,0h-17a11.72,11.72,0,0,0-3,.52A1.15,1.15,0,0,1,89,93.43a13.88,13.88,0,0,1,3.57-.59h17c15.32,0,31.15,0,46.73,0a12,12,0,0,1,9.84,5,14.3,14.3,0,0,1,2.8,8.33,1.16,1.16,0,0,1-1.09,1.21Z"/><path class="cls-1" d="M83,107.32a1.15,1.15,0,0,1-1.14-1,4.52,4.52,0,0,1,.89-2.94C86,98.46,84.4,93,81.35,89.7c-4.14-4.44-8.29-9-12.3-13.42l-3.46-3.82q-2.91-3.19-5.8-6.4C56.5,62.41,53.09,58.64,49.71,55a10.67,10.67,0,0,0-13.84-1.48,5.43,5.43,0,0,0-1.16,1.18l-.08.1a1.15,1.15,0,0,1-1.78-1.46l.08-.09a7.48,7.48,0,0,1,1.67-1.65,13,13,0,0,1,16.8,1.84c3.39,3.68,6.8,7.45,10.1,11.11l5.79,6.4,3.46,3.81c4,4.41,8.15,9,12.28,13.4a13.14,13.14,0,0,1,1.62,16.5,2.19,2.19,0,0,0-.51,1.43,1.15,1.15,0,0,1-1,1.26Z"/><path class="cls-1" d="M202.17,167.12a1.15,1.15,0,0,1-1-.69,1.14,1.14,0,0,1,.59-1.51,10,10,0,0,0,5.88-7.68,1.27,1.27,0,0,1,.08-.57c.86-2.27-.15-4.33-1.22-6.51l-.17-.35c-2.28-4.7-4.74-9.41-7.12-14q-1.62-3.08-3.21-6.15-1.41-2.75-2.8-5.51c-1.76-3.44-3.57-7-5.42-10.48a10.57,10.57,0,0,0-12.37-5.3,6.35,6.35,0,0,0-2,1,1.14,1.14,0,0,1-1.6-.29,1.15,1.15,0,0,1,.29-1.6,8.32,8.32,0,0,1,2.71-1.39,13,13,0,0,1,14.95,6.46c1.86,3.48,3.68,7.06,5.44,10.52.93,1.83,1.86,3.67,2.8,5.49l3.19,6.15c2.39,4.57,4.86,9.3,7.16,14l.17.34c1.15,2.36,2.46,5,1.37,8.14a1.57,1.57,0,0,1,0,.29,12.31,12.31,0,0,1-7.23,9.45A1.1,1.1,0,0,1,202.17,167.12Z"/><path class="cls-1" d="M140.05,172.86a1.15,1.15,0,0,1-1.15-1.15V127.38a1.15,1.15,0,1,1,2.3,0v44.33A1.14,1.14,0,0,1,140.05,172.86Z"/><path class="cls-1" d="M128.42,152.07a1.16,1.16,0,0,1-1.15-1.15V147.3c0-3,0-6,0-9a4.16,4.16,0,0,0,0-.82,3.5,3.5,0,0,0-.87-.07H103.52a1.15,1.15,0,1,1,0-2.3h22.85a3.4,3.4,0,0,1,2.53.74,3.25,3.25,0,0,1,.68,2.47q0,4.47,0,9v3.62A1.15,1.15,0,0,1,128.42,152.07Z"/><path class="cls-1" d="M103,128.46a1.26,1.26,0,0,1-.41-.07,14,14,0,0,0-5.16-.43,22.2,22.2,0,0,1-4.22-.12c-4.08-.62-8.46-4.38-8.23-8.46a1.15,1.15,0,0,1,2.3.13c-.16,2.72,3.32,5.61,6.28,6.06a19.68,19.68,0,0,0,3.78.09,17.43,17.43,0,0,1,5.54.41l.06,0a6.42,6.42,0,0,1,2.56-.37H124l2.81,0c2.08,0,4.22,0,6.32,0,1.37,0,2.74,0,4.06.07a37.28,37.28,0,0,0,5.18,0,32.18,32.18,0,0,1,4-.06l1.41,0H148c4.1,0,7.64-2.83,7.92-6.34a1.15,1.15,0,0,1,2.3.19c-.39,4.75-4.86,8.45-10.22,8.45h-.11l-1.44,0a29.42,29.42,0,0,0-3.77,0,38.87,38.87,0,0,1-5.5,0c-1.28-.06-2.6-.11-3.88-.07-2.15.07-4.32.06-6.42,0L124,128H105.57a4.78,4.78,0,0,0-1.75.19A1.33,1.33,0,0,1,103,128.46Z"/><path class="cls-1" d="M103,172.93a1.15,1.15,0,0,1-1.15-1.15V153.93c0-.89,0-1.78,0-2.67,0-2,0-4.08,0-6.13.09-2.71.19-5.86.19-8.85s0-5.94-.22-8.82a1.17,1.17,0,0,1,1.07-1.23,1.14,1.14,0,0,1,1.23,1.07c.21,3,.22,5.93.22,9s-.1,6.2-.2,8.93c-.07,2,0,4,0,6,0,.9,0,1.79,0,2.69v17.85A1.14,1.14,0,0,1,103,172.93Z"/></svg>