<svg id="Layer_1" data-name="Layer 1" xmlns="http://www.w3.org/2000/svg" viewBox="0 0 236 236"><defs><style>.cls-1{fill:#3e4445;}</style></defs><title>Artboard 1 copy 10</title><g id="outline"><path class="cls-1" d="M174.25,62h0a78.85,78.85,0,0,0-56-23.48h-.32A79.38,79.38,0,0,0,61.53,173.79l.45.45a79.71,79.71,0,0,0,83.52,18.4l.41-.15.38.22a33.86,33.86,0,0,0,46.42-46.42l-.22-.38.15-.42A79.71,79.71,0,0,0,174.25,62ZM194,163.62A30.46,30.46,0,0,1,163.63,194h0A30.38,30.38,0,1,1,194,163.62Zm-85-6.75a1.78,1.78,0,0,0-.7,1.4v24.29l-1.08-.18c-1.82-.3-3.65-.69-5.43-1.15l-.7-.18V163.62a1.75,1.75,0,0,0-1-1.56h0a1.73,1.73,0,0,0-1.83.16l-7.91,5.94v-6.68l3-4.56a13.71,13.71,0,0,0,2.32-7.65v-8.12l.69-.18a9.81,9.81,0,0,0,7.34-9.47v-5.36a1.75,1.75,0,0,0-1.75-1.74h0a8.23,8.23,0,0,1-6.86-3.68l-2.38-3.58a1.79,1.79,0,0,0-.85-.66L90.6,116l7.11-7.11,1.54-.33,12.54,8.36a1.74,1.74,0,0,0,1,.29h9.15l2.33,21a3.5,3.5,0,0,1-.36,2l-4.46,8.93Zm10-3.14v29.56h-.93c-1.77,0-3.59-.07-5.43-.23l-.85-.07V159.14ZM92.91,173.55h0l-1-2.1,5.77-4.33V180l-1.24-.45c-.92-.32-1.82-.66-2.72-1l-.58-.23v-4A1.75,1.75,0,0,0,92.91,173.55Zm-5.81-3.79,2.49,5v2l-1.35-.7a65.42,65.42,0,0,1-26.65-25.49l-.27-.46,10.12-17.71a1.8,1.8,0,0,0,.23-.87v-8.38c0-.19,0-.37,0-.56A15.76,15.76,0,0,1,75.49,113l1.59-1.87,1.86,7.41a1.73,1.73,0,0,0,1.69,1.32h9.78l1.86,2.8a11.69,11.69,0,0,0,7.3,5l.73.16v3.71A6.29,6.29,0,0,1,94,137.78a1.76,1.76,0,0,0-1.75,1.75v9.74A10.2,10.2,0,0,1,90.54,155l-3.33,5a1.73,1.73,0,0,0-.29,1v8A1.75,1.75,0,0,0,87.1,169.76ZM105.66,95v1.94a8.31,8.31,0,0,1-6,8l-1.19.33V89.39l9.69-9.69h11.94l7.52,7.52a1.72,1.72,0,0,0,1.23.51h6.29v5a5,5,0,0,1-5,4.95h-6.69a1.74,1.74,0,0,0-1.75,1.74v14.32h-8.43l-9.89-6.59,1-.79a11.81,11.81,0,0,0,4.7-9.42V95Zm16.88,55.7,4.46-8.92a7.06,7.06,0,0,0,.71-4l-2.5-22.48V101.12h5a8.45,8.45,0,0,0,8.44-8.44V86a1.75,1.75,0,0,0-1.75-1.75h-7.31L122,76.72a1.76,1.76,0,0,0-1.24-.51H107.4a1.73,1.73,0,0,0-1.23.51L95.46,87.43A1.73,1.73,0,0,0,95,88.66v18l-9.69,9.69H82L79.65,107a1.71,1.71,0,0,0-.79-1.07,1.76,1.76,0,0,0-1.33-.2,1.71,1.71,0,0,0-.9.56l-3.81,4.47a19.33,19.33,0,0,0-4.63,11.71c0,.22,0,.44,0,.67V131l-8.8,15.39-.75-1.66a64.41,64.41,0,0,1-5.7-26.65,65.18,65.18,0,1,1,128.54,15.34l-.28,1.2-1.07-.6a33.85,33.85,0,0,0-46.07,13,34.07,34.07,0,0,0,0,33l.59,1.07-1.19.28a64.76,64.76,0,0,1-9.91,1.6l-1,.08Zm68-9.82-.49,1.56L189,141.17a35.27,35.27,0,0,0-4.25-4l-.48-.38.16-.59a68.68,68.68,0,1,0-66.28,50.63h0a68.78,68.78,0,0,0,18-2.4l.59-.16.38.48a35.27,35.27,0,0,0,4,4.25l1.22,1.09-1.56.49A75.46,75.46,0,0,1,118.21,194h-.1a75.85,75.85,0,1,1,72.43-53.17Z"/><rect class="cls-1" x="113.69" y="86.92" width="3.5" height="3.5"/><rect class="cls-1" x="84.24" y="127.07" width="3.5" height="3.5"/><path class="cls-1" d="M158.27,186.79h13.39A1.75,1.75,0,0,0,173.4,185v-10l.28-.27,1.12-1.12.27-.28h10a1.75,1.75,0,0,0,1.75-1.75V158.27a1.76,1.76,0,0,0-1.75-1.75H173.4V144.88a1.74,1.74,0,0,0-1.74-1.74H158.27a1.75,1.75,0,0,0-1.75,1.74v11.64H144.88a1.75,1.75,0,0,0-1.74,1.75v13.38a1.74,1.74,0,0,0,1.74,1.75h11.64V185A1.76,1.76,0,0,0,158.27,186.79Zm-11.64-16.88V160h11.64a1.76,1.76,0,0,0,1.75-1.75V146.63h9.89v11.64a1.75,1.75,0,0,0,1.75,1.75h11.63v9.89H171.66a1.74,1.74,0,0,0-1.75,1.74v11.64H160V171.65a1.75,1.75,0,0,0-1.75-1.74Z"/></g></svg>