<svg id="Layer_1" data-name="Layer 1" xmlns="http://www.w3.org/2000/svg" viewBox="0 0 236 236"><defs><style>.cls-1{fill:#3e4445;}</style></defs><title>Artboard 1 copy 11</title><path class="cls-1" d="M187.09,214.61H48.91l-2-193.22H189.12v1.27Zm-135.71-2.5H184.62l2-188.22H49.41Z"/><path class="cls-1" d="M145.54,103.18H58.32V38.68h87.22Zm-84.72-2.5H143V41.18H60.82Z"/><path class="cls-1" d="M140.25,208H56.89V131h83.36Zm-80.86-2.5h78.36V133.46H59.39Z"/><path class="cls-1" d="M182.68,148.89H143V131h39.64Zm-37.14-2.5h34.64V133.46H145.54Z"/><path class="cls-1" d="M162.86,201.18a8.55,8.55,0,0,1-8.54-8.54V146.39h17.07v46.25A8.55,8.55,0,0,1,162.86,201.18Zm-6-52.29v43.75a6,6,0,1,0,12.07,0V148.89Z"/><path class="cls-1" d="M158.57,147.64h8.71a0,0,0,0,1,0,0V152a4.36,4.36,0,0,1-4.36,4.36h0a4.36,4.36,0,0,1-4.36-4.36v-4.36A0,0,0,0,1,158.57,147.64Z"/><rect class="cls-1" x="161.61" y="153.36" width="2.5" height="25"/><path class="cls-1" d="M126.54,203H77.75V162h48.79Zm-46.29-2.5H124V164.46H80.25Z"/><path class="cls-1" d="M67.52,199.61a5.83,5.83,0,1,1,5.82-5.82A5.83,5.83,0,0,1,67.52,199.61Zm0-9.15a3.33,3.33,0,1,0,3.32,3.33A3.33,3.33,0,0,0,67.52,190.46Z"/><circle class="cls-1" cx="64.87" cy="179.67" r="1.92"/><path class="cls-1" d="M122.82,179H82.46v-9.61h40.36ZM85,176.5h35.36v-4.61H85Z"/><rect class="cls-1" x="49.17" y="119.46" width="137.67" height="2.5"/></svg>