<svg id="Layer_1" data-name="Layer 1" xmlns="http://www.w3.org/2000/svg" viewBox="0 0 236 236"><defs><style>.cls-1{fill:#3e4445;}</style></defs><title>Artboard 1 copy 12</title><path class="cls-1" d="M43.32,145.06c-4.49,0-8.5,0-10.39-.05a1.1,1.1,0,1,1,0-2.2c3.67.07,15.39.05,23.14,0H184.85a1.1,1.1,0,0,1,0,2.2H56.11Z"/><path class="cls-1" d="M182.86,151.39c-5.2,0-12.2,0-19-.07-10.58,0-21.51-.09-25.12,0-4.67.09-9.42,0-14,0l-1.24,0c-6-.08-12.07-.06-18,0-6.72,0-13.67,0-20.5-.09-2.16,0-4.37,0-6.51,0-1.08,0-2.16,0-3.24,0l-3.47,0c-5,0-10.19.1-15.3-.11-.69,0-1.38,0-2.12.05s-1.27.06-1.91,0c-2.25,0-4.49,0-6.74,0-4.15,0-8.43,0-12.67-.18-2.89-.14-5.85-.11-8.72-.07-1.34,0-2.66,0-4,0-1.63,0-2.29-.67-2.37-2.38v-.35c0-.91-.07-1.48-.44-1.86a1.6,1.6,0,0,1-.42-1.47c.22-1,1.3-1.45,1.75-1.62l2.29-.85c2.73-1,5.55-2.05,8.34-3l.21-.07c3.08-1.07,6.27-2.18,9.46-3.05.43-.12.86-.26,1.28-.4a14,14,0,0,1,3.75-.82,3.12,3.12,0,0,1,1.48.36,1.82,1.82,0,0,0,.43.16H48l8.13,0q17.22,0,34.44,0h1.27q17.86,0,35.71,0,7.62,0,15.24,0l20,0a14.2,14.2,0,0,1,5.14,1.21l1.12.41,6.15,2.17c3,1,6,2.11,8.94,3.33l.3.13a15.44,15.44,0,0,0,2.86,1l.5.07a2.41,2.41,0,0,1,2.25,1.66,12.08,12.08,0,0,1,.9,4.38,1.15,1.15,0,0,1,0,.19.86.86,0,0,1,0,.16,1.09,1.09,0,0,1-1.07,1.12C188.47,151.37,186,151.39,182.86,151.39Zm-37.68-2.33c4.94,0,11.67,0,18.65.06,10,0,20.36.09,24.89,0a10.66,10.66,0,0,0-.71-2.84,1.1,1.1,0,0,0-.13-.26l-.38-.05a6,6,0,0,1-.62-.1,17.2,17.2,0,0,1-3.29-1.11l-.29-.12c-2.9-1.21-5.91-2.27-8.83-3.3l-6.15-2.16-1.17-.43a12,12,0,0,0-4.36-1.07l-20,0q-7.63,0-15.25,0-17.85,0-35.71,0H90.52q-17.22,0-34.44,0l-8.12,0H46a3.18,3.18,0,0,1-1.28-.35,2.05,2.05,0,0,0-.5-.17A12.07,12.07,0,0,0,41,138l-1.38.42c-3.12.85-6.27,2-9.31,3l-.22.07c-2.77,1-5.58,2-8.3,3l-2.29.84-.08,0a5.26,5.26,0,0,1,.62,2.77l0,.33c0,.12,0,.21,0,.28h.27l3.91,0c2.9,0,5.9-.07,8.85.07,4.18.21,8.43.2,12.55.18,2.26,0,4.52,0,6.78,0,.6,0,1.18,0,1.78-.05s1.52-.07,2.31,0c5,.2,10.21.15,15.19.1l3.47,0,3.23,0c2.15,0,4.38-.06,6.58,0,6.81.12,13.75.1,20.45.09,5.9,0,12,0,18,.05h1.25c4.56.07,9.29.13,13.92,0C140,149.07,142.28,149.06,145.18,149.06Z"/><path class="cls-1" d="M96,200.21c-8.3,0-16.67,0-25-.11-2.61,0-5.22,0-7.83,0H59.65c-1.16,0-1.92,0-2.48-.6s-.51-1.4-.44-2.51v-.28a3.34,3.34,0,0,1,1.54-3.1,1.11,1.11,0,0,1,1.5.43,1.09,1.09,0,0,1-.43,1.49c-.31.18-.37.44-.41,1.29l0,.31c0,.22,0,.52,0,.76h4.35q3.93,0,7.85,0c14,.14,28.19.11,41.93.09,6,0,12.07,0,18.09,0h1c3.44,0,7,0,10.48-.08,5-.12,9.83-.18,14.42-.18.7,0,1.39,0,2.09,0s1.12,0,1.67,0a2.37,2.37,0,0,0,.41,0,4.11,4.11,0,0,0-.06-.61,6,6,0,0,0-1.55-2.95,2.24,2.24,0,0,1-.49-2.6s0-.16,0-.26l-.06-.27a1.1,1.1,0,0,1,2.16-.4l0,.18a2.41,2.41,0,0,1-.1,1.69,1,1,0,0,0,.15.2,8.23,8.23,0,0,1,2.06,4,2.89,2.89,0,0,1-.38,2.44,2.59,2.59,0,0,1-2.1.8l-1.63.05c-.72,0-1.44,0-2.16,0-4.58,0-9.41.06-14.36.18-3.52.08-7.09.08-10.55.08h-1c-6,0-12.06,0-18.09,0Zm-37.13-2h0Z"/><path class="cls-1" d="M204.71,193.67c-14.91,0-29,0-43.8-.15a1.1,1.1,0,0,1,0-2.2h0c14.51.15,28.33.15,42.93.15l.45-1.8H160.44a1.1,1.1,0,0,1,0-2.2h45.27a1.1,1.1,0,0,1,1.07,1.37l-1,4A1.09,1.09,0,0,1,204.71,193.67Z"/><path class="cls-1" d="M59.64,193.06a1.09,1.09,0,0,1-1.09-1c-.15-2,.65-4.21,1.35-6.19.13-.37.25-.72.37-1a1.1,1.1,0,0,1,1.39-.7,1.11,1.11,0,0,1,.69,1.4c-.11.34-.24.7-.37,1.07-.6,1.7-1.35,3.8-1.24,5.29a1.09,1.09,0,0,1-1,1.18Z"/><path class="cls-1" d="M66.05,192.9c-.72,0-1.43,0-2.15-.05l-1.14,0a6.35,6.35,0,0,1-2.22-.56,6.39,6.39,0,0,0-.83-.31,1.1,1.1,0,1,1,.61-2.11c.36.1.7.24,1,.37a4.21,4.21,0,0,0,1.45.41l1.17,0c.74,0,1.47,0,2.21,0l14.7,0q7.08,0,14.16,0c15.26-.07,30.76,0,45.76,0h14.3a7.46,7.46,0,0,0,3.95-.84l.07,0c0-.15,0-.25-.21-.63s-.29-.5-.44-.75a13.16,13.16,0,0,1-1.3-2.57,1.1,1.1,0,0,1,2.09-.71,11.22,11.22,0,0,0,1.1,2.15l.47.8a2.85,2.85,0,0,1,.4,2.35,2.08,2.08,0,0,1-1.05,1.28,9.45,9.45,0,0,1-5.08,1.15h-14.3c-15,0-30.5,0-45.75,0q-7.08,0-14.17,0l-14.69,0Z"/><path class="cls-1" d="M110.86,166l-4.74,0-4.06,0c-3.17,0-6.39-.1-9.5-.2l-4-.12c-2.56-.07-5.22-.14-7.83-.33-2.33-.18-4.7-.3-7-.42-1.78-.09-3.57-.18-5.35-.29-1.13-.08-2.27-.14-3.41-.2-1.45-.07-2.9-.15-4.34-.25-2.14-.16-4.49-.36-7.41-.63-2.13-.2-4.25-.35-6.05-.47A3.75,3.75,0,0,1,44.78,162L43,160.28c-1.25-1.21-2.5-2.43-3.78-3.62A21.79,21.79,0,0,1,37,152.92c-.45-.83-1-1.77-1.13-2a1.1,1.1,0,1,1,1.8-1.27c.22.32.62,1,1.26,2.21s1.59,2.9,1.87,3.22c1.25,1.17,2.51,2.4,3.78,3.63l1.74,1.69a1.56,1.56,0,0,0,1.06.45c1.82.12,4,.28,6.12.48,2.9.27,5.24.47,7.36.62,1.43.11,2.86.18,4.3.26l3.43.19c1.78.11,3.55.21,5.33.3,2.3.12,4.69.24,7,.41,2.56.19,5.19.26,7.73.33l4,.12c3.1.1,6.3.2,9.44.2l4.06,0c4,0,8.1.05,12.13-.08,1.69-.06,3.38-.09,5.08-.11,1.47,0,3-.05,4.42-.09,2.3-.07,5.32-.17,8.37-.33l3.72-.18,3-.14c2-.1,4-.23,6-.37l1.3-.08,3.39-.24c2-.14,4-.28,6-.4,1.53-.09,3.1-.22,4.61-.35,1.26-.11,2.51-.22,3.76-.3.39,0,.79,0,1.2-.05a9.3,9.3,0,0,0,2.46-.25,4.85,4.85,0,0,1,.49-.11c.33-.07.43-.1.51-.18.94-.93,2.61-2.9,4.22-4.81s3.5-4.13,4.54-5.16a1.1,1.1,0,0,1,1.56,0,1.09,1.09,0,0,1,0,1.55c-1,1-2.72,3-4.41,5s-3.34,4-4.34,4.94a2.88,2.88,0,0,1-1.64.78l-.31.08a11.87,11.87,0,0,1-3,.33l-1.09,0q-1.86.13-3.72.3c-1.53.13-3.11.27-4.68.36-2,.11-4,.25-6,.4l-3.4.23-1.3.09c-2,.13-4,.27-6,.37l-3,.14c-1.23.06-2.47.11-3.7.18-3.08.16-6.12.26-8.42.32-1.49.05-3,.07-4.46.1-1.68,0-3.36.05-5,.1C115.85,166,113.34,166,110.86,166Z"/><path class="cls-1" d="M100.53,171.89h-5c-2.08,0-4.15,0-6.24,0-3.32,0-6.73-.06-10.09-.2-.91,0-1.81,0-2.72,0s-1.69,0-2.53,0l-1.43,0c-3.5-.12-7.12-.24-10.69-.48l-.38,0a4.67,4.67,0,0,1-2.44-.6A2.27,2.27,0,0,1,57.83,169a2.11,2.11,0,0,1,.6-1.72,4.12,4.12,0,0,1,.41-.43,2.22,2.22,0,0,0,.76-2.33,3.1,3.1,0,0,1,0-1.11,2,2,0,0,0,0-.24,1.1,1.1,0,1,1,2.19.2,3.12,3.12,0,0,1-.06.41,1.78,1.78,0,0,0,0,.29,4.39,4.39,0,0,1-1.36,4.33l-.21.2,0,0a2.76,2.76,0,0,0,1.38.28l.43,0c3.53.24,7.13.37,10.62.48l1.42.05c.82,0,1.65,0,2.47,0s1.86,0,2.8,0c3.33.13,6.71.19,10,.19h6.25c4.5,0,9.16,0,13.73-.08,1.89,0,3.8,0,5.65,0,2.2,0,4.47,0,6.7-.06,1.43-.06,2.88,0,4.28,0,1.24,0,2.5,0,3.75,0,1.48-.05,3-.06,4.45-.08,1.74,0,3.55,0,5.31-.1,2.43-.1,4.89-.11,7.27-.11h2.91c.41,0,.83,0,1.24,0a16.69,16.69,0,0,0,2.25,0,28.38,28.38,0,0,1,5.17-.12,1.76,1.76,0,0,0,1.08-.34l-.1-.08a4.08,4.08,0,0,1-1.69-3.68c0-.4,0-.79.06-1.19l0-.54a1.12,1.12,0,0,1,1.16-1,1.11,1.11,0,0,1,1,1.16l0,.52c0,.42,0,.84-.07,1.25a1.85,1.85,0,0,0,.78,1.73,2.34,2.34,0,0,1,.89,1.05c.44,1.17.22,2-.61,2.5a4.17,4.17,0,0,1-2.7.85,26,26,0,0,0-4.78.12,19.57,19.57,0,0,1-2.53,0l-1.17,0h-2.92c-2.36,0-4.8,0-7.19.1-1.8.08-3.62.09-5.38.11-1.47,0-2.94,0-4.4.08-1.28,0-2.55,0-3.83,0s-2.8,0-4.19.05c-2.27.09-4.57.07-6.79.06-1.83,0-3.73,0-5.58,0C106.44,171.87,103.47,171.89,100.53,171.89Zm58.86-3.31h0Z"/><path class="cls-1" d="M102.36,179.75c-2.69,0-5.37,0-8,0l-5.2,0c-3.75,0-8,0-12.21-.19-1.52-.07-3-.11-4.57-.15-3.14-.08-6.39-.17-9.59-.45a2.87,2.87,0,0,0-1.11,0,1.1,1.1,0,0,1-.73-2.08,4.73,4.73,0,0,1,2-.14c3.16.29,6.37.37,9.48.45,1.53,0,3.07.09,4.6.15,4.16.17,8.39.18,12.13.2l5.21,0c6.2,0,12.62.07,18.92-.09,2.8-.06,5.58-.08,8.88-.09,5,0,9.87-.09,14.46-.16l5.49-.07c2.94,0,6-.06,9-.15l2.15-.07c1.07,0,2.14-.08,3.21-.1l.42,0a4.77,4.77,0,0,1,2.26.29,1.1,1.1,0,0,1-.9,2A2.84,2.84,0,0,0,157,179l-.51,0c-1.05,0-2.1.06-3.15.1l-2.18.07c-3,.09-6.06.12-9,.15l-5.47.07c-4.6.07-9.53.15-14.5.16-3.28,0-6,0-8.83.09C109.69,179.72,106,179.75,102.36,179.75Z"/><path class="cls-1" d="M117.67,186.81c-2.61,0-5.23,0-7.84-.06l-2.52,0c-1.76,0-3.52,0-5.28,0-2.81,0-5.71,0-8.58-.07-1.94-.07-3.93-.07-5.86-.08l-3.43,0-6.44-.06c-3.06,0-6.16-.12-9.16-.22-1.87-.06-3.75-.13-5.62-.17H62.8a6.4,6.4,0,0,1-2.92-.57A2.6,2.6,0,0,1,58.39,184a2.3,2.3,0,0,1,.32-1.8c.32-.56.67-1.09,1-1.6s.5-.74.73-1.12a1.23,1.23,0,0,0-.24-.95c-1.11-.58-1.85-1-2.08-1.81s.2-1.53.85-2.58a1.77,1.77,0,0,1,.31-.36c1-1.18,1.17-2,.73-2.94a1.1,1.1,0,0,1,1.58-1.53,1.79,1.79,0,0,1,.3.38c1.24,2.36.06,4.29-.95,5.53a1.22,1.22,0,0,1-.15.17c-.15.24-.32.52-.43.72.23.15.6.34.89.49a2.83,2.83,0,0,1,1.28,1.78,2.88,2.88,0,0,1-.22,2.26c-.25.4-.51.79-.78,1.19s-.65,1-.94,1.46l0,.07a2,2,0,0,0,.29.17,4.39,4.39,0,0,0,2,.33H63c1.88,0,3.76.11,5.64.17,3,.1,6.07.21,9.1.22,2.15,0,4.31,0,6.46.06l3.41,0c1.94,0,4,0,5.93.08,2.82.09,5.7.08,8.49.07,1.77,0,3.54,0,5.32,0l2.52,0q4.17.06,8.34.06h.94c7.1,0,14.43,0,21.64-.11l6.37-.06c1.42,0,2.83-.06,4.25-.1,2.08-.07,4.24-.14,6.39-.1a3.49,3.49,0,0,0,1.43-.49l-.11-.2a9.45,9.45,0,0,0-1.41-2,2.79,2.79,0,0,1-.64-2.49,3.08,3.08,0,0,1,1.73-2.2l.31-.13.31-.13h0l-.2-.32a8.7,8.7,0,0,0-.74-1.12,4.87,4.87,0,0,1-.95-4.24c0-.19.08-.39.13-.59l0-.26a1.11,1.11,0,0,1,1.32-.83,1.09,1.09,0,0,1,.83,1.31l-.06.27-.12.54a2.69,2.69,0,0,0,.5,2.41,11.52,11.52,0,0,1,.93,1.38l.18.31a2.06,2.06,0,0,1-.6,2.95,4.18,4.18,0,0,1-.77.38,1.45,1.45,0,0,0-.22.09.89.89,0,0,0-.47.64.62.62,0,0,0,.1.55,11.61,11.61,0,0,1,1.69,2.36,3.33,3.33,0,0,1,.48,1.27,1.8,1.8,0,0,1-1,1.85,5.13,5.13,0,0,1-2.75.88c-2.08,0-4.21,0-6.27.09-1.43.05-2.87.1-4.3.11l-6.36.06c-7.22.09-14.56.1-21.66.11h-1.48Zm-56.8-11.49h0Z"/><path class="cls-1" d="M183.77,189.63h-.07a1.11,1.11,0,0,1-1-1.17l0-.49c0-.32,0-.64,0-1q0-15.1-.08-30.2v-4.47h0a1.1,1.1,0,0,1,1.44-1.64,1.85,1.85,0,0,1,.76,1.7v4.42q0,15.09.08,30.2c0,.37,0,.75-.06,1.13l0,.46A1.1,1.1,0,0,1,183.77,189.63Zm-.9-37.12h0Z"/><path class="cls-1" d="M170.58,189.72a1.09,1.09,0,0,1-1.08-.89,5.54,5.54,0,0,1,0-1.78,6.32,6.32,0,0,0,.06-.76q0-9.54,0-19.08v-5.3a1.1,1.1,0,1,1,2.19,0v5.3q0,9.54,0,19.08a9.1,9.1,0,0,1-.08,1,3.67,3.67,0,0,0,0,1.08,1.09,1.09,0,0,1-.87,1.29A.75.75,0,0,1,170.58,189.72Z"/><path class="cls-1" d="M30.16,150.6a1.41,1.41,0,0,1-.35,0,1.11,1.11,0,0,1-.7-1.4c1.92-5.77,2.74-5.85,3.28-5.9C34,143,50.71,137,52.1,135.93a1.08,1.08,0,0,1,1.54,0,1.12,1.12,0,0,1,0,1.57c-1.39,1.33-17.41,7-20.55,7.79a35.74,35.74,0,0,0-1.84,4.51A1.09,1.09,0,0,1,30.16,150.6Zm2.5-5.17h0Z"/><path class="cls-1" d="M189.3,147.9a1.1,1.1,0,0,1,0-2.2,42,42,0,0,0,7-.66,3.06,3.06,0,0,1,.36-1.39c-1.17-.36-2.35-.7-3.54-1-4.56-1.33-8.73-2.41-12.75-3.28-.9-.2-1.81-.42-2.71-.65a41.19,41.19,0,0,0-6.62-1.25H171a1.12,1.12,0,0,1-1.43.24,1.08,1.08,0,0,1-.37-1.5,2,2,0,0,1,2-.93,42.83,42.83,0,0,1,7,1.31c.88.22,1.77.43,2.65.63,4.07.88,8.29,2,12.9,3.31l4.07,1.21a2,2,0,0,1,1.34,1.43,1.56,1.56,0,0,1-.5,1.53c-.13.11-.15.19-.15.76v.2C198.5,147.13,195.4,147.9,189.3,147.9Zm7.92-4.9h0Z"/><path class="cls-1" d="M58.89,195.47h-.15a1.1,1.1,0,0,1-.94-1.24c0-.12,0-.23,0-.34a3.86,3.86,0,0,1,.5-1.79,8.65,8.65,0,0,0,.4-1.07,1.09,1.09,0,0,1,1.37-.72,1.11,1.11,0,0,1,.73,1.38,12.26,12.26,0,0,1-.58,1.5,1.69,1.69,0,0,0-.23.87,4.35,4.35,0,0,1-.05.48A1.1,1.1,0,0,1,58.89,195.47Z"/><path class="cls-1" d="M188.75,193a1.1,1.1,0,0,1-1.1-1.1V190a1.1,1.1,0,0,1,2.2,0v1.94A1.1,1.1,0,0,1,188.75,193Z"/><path class="cls-1" d="M202.85,130.46h-.36c-.93,0-1.86,0-2.79,0-.72,0-1.43,0-2.15,0H178.33c-2.38,0-4.84,0-7.25,0l-.76,0c-1,0-2,.06-3.08,0-1.72-.09-3.48-.1-5.18-.12l-2.81,0c-1.83,0-3.72,0-5.54.05-1.15,0-2.31.06-3.46.07h-.06c-2.34,0-3.38-1-3.49-3.35V78.83a3.37,3.37,0,0,1,0-.55,3,3,0,0,1,2.65-3A15.74,15.74,0,0,1,152.1,75c.45,0,.91-.07,1.35-.13,1.21-.15,2.42-.26,3.63-.37,1.47-.14,3-.28,4.46-.5.41-.06.82-.09,1.22-.13s.88-.08,1.32-.15l.14,0c1.09-.19,2.74-.48,4,.81a9.56,9.56,0,0,0,3.8,2.09l.19.07a13.16,13.16,0,0,0,7.86.21,14.79,14.79,0,0,0,5.2-2.63,3,3,0,0,1,2.08-.69l1.51.14c2.21.21,4.42.42,6.62.66,1.54.17,3.07.36,4.61.54l2.92.35c2,.23,3.11.86,3.1,3.4v7.25q0,5.39,0,10.75c0,1.81,0,3.62.06,5.44,0,2.08.08,4.24.06,6.36,0,4.12,0,8.31,0,12.35q0,3.12,0,6.24a3.61,3.61,0,0,1-.89,2.69A3.37,3.37,0,0,1,202.85,130.46Zm-12.5-2.28h7.24c.71,0,1.42,0,2.13,0,.95,0,1.9,0,2.86.05s1.12-.11,1.18-.17.21-.29.21-1.1c0-2.08,0-4.15,0-6.23,0-4.06,0-8.25,0-12.38,0-2.1,0-4.23-.06-6.3,0-1.83-.07-3.66-.06-5.49q0-5.37,0-10.73V78.59c0-1.07,0-1.07-1.16-1.21L199.78,77c-1.53-.19-3.05-.38-4.57-.54-2.2-.24-4.4-.45-6.6-.66l-1.51-.14c-.1,0-.24,0-.58.28a17.21,17.21,0,0,1-6,3,15.2,15.2,0,0,1-9.16-.28l-.19-.07A11.52,11.52,0,0,1,166.58,76c-.38-.4-1-.32-2-.15l-.15,0c-.49.09-1,.13-1.48.18s-.74.07-1.11.12c-1.53.23-3.08.37-4.58.51-1.19.11-2.37.21-3.55.36-.49.06-1,.1-1.46.14a13.68,13.68,0,0,0-2.38.31c-.85.21-.92.34-1,1a1.31,1.31,0,0,0,0,.28v48.16c0,1.16.17,1.26,1.33,1.25s2.29,0,3.43-.07c1.85,0,3.76-.09,5.64-.05l2.78,0c1.73,0,3.51,0,5.28.13.93,0,1.93,0,2.9,0l.77,0c2.44,0,4.92,0,7.31,0h12Z"/><path class="cls-1" d="M183.8,48.45a1,1,0,0,1-.43-.1H166.89c-1.61,0-2.1-.49-2.1-2.09V31c0-.24,0-.47,0-.72l0-.31a1.1,1.1,0,0,1,1.1-1H186.4a1.1,1.1,0,0,1,1.1,1.1V47.13a1.11,1.11,0,0,1-.74,1,4.72,4.72,0,0,1-1.76.18,2.86,2.86,0,0,0-.86,0A1,1,0,0,1,183.8,48.45Zm-6.73-2.29h6.64l.25,0a6.12,6.12,0,0,1,1.12,0h.22v-15H167v15Z"/><path class="cls-1" d="M184.08,77.46a1.12,1.12,0,0,1-1-.54,2.91,2.91,0,0,1-.34-1.6c0-2.07,0-4.13,0-6.19,0-2.81,0-5.71.05-8.58,0-1.82,0-3.68-.07-5.49,0-1-.07-2-.08-3s0-2.13,0-3.2V47.44a1.1,1.1,0,0,1,2.2,0v1.45c0,1,0,2.1,0,3.15s.05,2,.08,3c.06,1.84.12,3.74.07,5.62-.07,2.83-.06,5.72-.05,8.52,0,2.07,0,4.13,0,6.2a1.77,1.77,0,0,0,0,.46,1.1,1.1,0,0,1-.38,1.51A1.06,1.06,0,0,1,184.08,77.46Z"/><path class="cls-1" d="M170.28,123.49l-4.72,0-2.23,0-1.78,0c-1.23,0-2.49,0-3.73,0-.53,0-1.06,0-1.58,0l-.57,0a2.15,2.15,0,0,1-2.33-2,5.06,5.06,0,0,1-.1-1V86.82c0-.2,0-.4,0-.6s0-.22,0-.33A1.72,1.72,0,0,1,155,84.1l.26,0a8.17,8.17,0,0,1,2.47,0,15.15,15.15,0,0,1,2.84-.09q.63,0,1.26,0c3.28,0,6,0,8.51,0,1.53,0,3.11,0,4.64,0l2.68,0h1.25c2.22,0,4.52,0,6.79,0,1,0,1.95,0,2.93,0,1.24,0,2.48,0,3.72.06s2.6,0,3.88,0h1.34a2.25,2.25,0,0,1,1.57.55,2.09,2.09,0,0,1,.55,1.58v5.29q0,14.31,0,28.61a7.67,7.67,0,0,1,0,.82c0,.16,0,.33,0,.49a2.07,2.07,0,0,1-.61,1.49,2,2,0,0,1-1.54.49c-.68,0-1.36,0-2.05,0H180.84c-1.46,0-3,0-4.45,0C174.36,123.47,172.31,123.49,170.28,123.49Zm27.06-2Zm-38.11-.24,2.35,0,1.77,0,2.23,0c3.52,0,7.16.06,10.73-.07,1.52-.06,3.06,0,4.55,0h14.48c.67,0,1.35,0,2,0l0-.47c0-.21,0-.41,0-.62q0-14.31,0-28.61V86.57c0-.1,0-.2,0-.3h-1.22c-1.31,0-2.66,0-4,0s-2.44-.05-3.66-.06q-1.48,0-3,0c-2.24,0-4.52,0-6.72,0h-1.25l-2.65,0c-1.55,0-3.16.07-4.76,0-2.49-.08-5.16-.09-8.41-.05-.46,0-.91,0-1.36,0a12.68,12.68,0,0,0-2.56.08.93.93,0,0,1-.23,0,1.53,1.53,0,0,1-.3,0,5.58,5.58,0,0,0-1.87,0,1.36,1.36,0,0,0,0,.2,2.22,2.22,0,0,0,0,.37v33.46a3,3,0,0,0,0,.58,2.83,2.83,0,0,0,.08.3h.17l.59,0c.48,0,1,0,1.45,0S158.74,121.2,159.23,121.2Z"/><path class="cls-1" d="M168.16,77.25a1.08,1.08,0,0,1-.67-.24,1.1,1.1,0,0,1-.2-1.54,1.1,1.1,0,0,0,0-.49V71.62q0-11.33,0-22.65a6.08,6.08,0,0,0-.1-.88c0-.17,0-.35-.07-.52a1.1,1.1,0,1,1,2.19-.26c0,.15,0,.3.06.45a7.63,7.63,0,0,1,.12,1.21q0,11.33,0,22.65V75a2.75,2.75,0,0,1-.5,1.85A1.1,1.1,0,0,1,168.16,77.25Z"/><path class="cls-1" d="M205.57,109.92a1.09,1.09,0,0,1-1.1-1.07,1.11,1.11,0,0,1,1.08-1.13c.59,0,1.19-.07,1.82-.13s1.51-.14,2.3-.16h0A.53.53,0,0,0,210,107v-.76c0-1.82,0-3.71,0-5.55,0-.78,0-.84-1-.86-.16,0-.32,0-.47,0a1.13,1.13,0,0,0-.31,0,5.08,5.08,0,0,1-1.45-.13,1.76,1.76,0,0,0-.91-.06,1.1,1.1,0,1,1-.77-2.06,3.58,3.58,0,0,1,2.12,0,2.74,2.74,0,0,0,.79.1,3.66,3.66,0,0,1,.75,0l.29,0c2.07,0,3.07,1,3.15,3s0,3.81,0,5.66V107a2.67,2.67,0,0,1-2.54,2.61h0c-.67,0-1.33.07-2,.14s-1.31.14-2,.15Z"/><path class="cls-1" d="M163.56,91.77c-.35,0-.68,0-1-.06a4.07,4.07,0,0,0-1.26,0,1.1,1.1,0,0,1-.49-2.15,5.92,5.92,0,0,1,2,0,6.4,6.4,0,0,0,.88,0c3.08-.09,6.2-.1,9.23-.11h2.61a12.37,12.37,0,0,1,1.36,0c.42,0,.84,0,1.26,0,3.52,0,7-.07,10.56-.09l3.59,0h0a1.1,1.1,0,0,1,0,2.2l-3.59,0c-3.51,0-7,0-10.54.09-.47,0-1,0-1.43,0s-.82,0-1.2,0h-2.63c-3,0-6.12,0-9.17.11Z"/><path class="cls-1" d="M198.36,104.92h0l-1.46-.06c-1.21,0-2.45-.11-3.66-.08q-.45,0-.9,0l-.66,0c-2.18,0-4.35,0-6.53,0h-7.7c-4.93,0-9.86,0-14.79,0-.54,0-1.09,0-1.63,0a17,17,0,0,0-3.21.09,1.1,1.1,0,0,1-.34-2.18,19.23,19.23,0,0,1,3.62-.11l1.55,0c4.93,0,9.87,0,14.8,0h7.7c2.17,0,4.34,0,6.5,0,.27,0,.55,0,.82,0s.47,0,.72,0c1.27,0,2.57,0,3.81.08l1.43.06a1.1,1.1,0,0,1,0,2.2Z"/><path class="cls-1" d="M192.35,117.93a1.07,1.07,0,0,1-.46-.11H160.52a1.1,1.1,0,0,1,0-2.2h31.12a2.19,2.19,0,0,1,1.25.24,1.09,1.09,0,0,1,.42,1.49A1.1,1.1,0,0,1,192.35,117.93Z"/><path class="cls-1" d="M192.26,123.29h0a1.1,1.1,0,0,1-1.1-1.1c0-4.41,0-8.81,0-13.21,0-7.75,0-15.76.09-23.64a1.1,1.1,0,0,1,1.1-1.08h0a1.1,1.1,0,0,1,1.08,1.12c-.11,7.86-.1,15.86-.09,23.59,0,4.41,0,8.82,0,13.23A1.09,1.09,0,0,1,192.26,123.29Z"/><path class="cls-1" d="M160.7,123.2a1.1,1.1,0,0,1-1.08-.9,14.16,14.16,0,0,1-.11-3.3c0-.48,0-1,0-1.43,0-3.32,0-6.68,0-9.93,0-2.36,0-4.73,0-7.09,0-1.27,0-2.54,0-3.81,0-3,0-6-.08-9.06l0-.3a8.81,8.81,0,0,1,.12-2.37A1.11,1.11,0,0,1,161,84.2a1.09,1.09,0,0,1,.81,1.32,6.68,6.68,0,0,0-.06,1.75v.32c.13,3.06.11,6.17.09,9.17,0,1.26,0,2.52,0,3.79,0,2.37,0,4.74,0,7.11,0,3.24,0,6.59,0,9.88,0,.52,0,1,0,1.56a11.79,11.79,0,0,0,.08,2.8,1.1,1.1,0,0,1-.88,1.28Z"/><path class="cls-1" d="M176.44,123.29a1.1,1.1,0,0,1-1.1-1.1V86a2.24,2.24,0,0,1,.21-1.24,1.08,1.08,0,0,1,1.47-.49,1.1,1.1,0,0,1,.51,1.44v.2a2.09,2.09,0,0,1,0,.25v36A1.1,1.1,0,0,1,176.44,123.29Z"/><path class="cls-1" d="M170.68,137.21a1.1,1.1,0,0,1-1.1-1.1v-3.44s.21-1.91.21-3.11a1.1,1.1,0,0,1,2.2,0c0,1.2-.18,2.94-.22,3.29v3.26A1.1,1.1,0,0,1,170.68,137.21Z"/><path class="cls-1" d="M183.68,139.88a1.14,1.14,0,0,1-.68-.23,1.1,1.1,0,0,1-.23-1.48,1.34,1.34,0,0,0,0-.2V132.6a1.15,1.15,0,0,1,0-.26,1.48,1.48,0,0,1,0-.21,19.24,19.24,0,0,0-.09-2.43,1.1,1.1,0,0,1,.95-1.23,1.08,1.08,0,0,1,1.23.95,19.48,19.48,0,0,1,.11,2.73c0,.4,0,.81,0,1.21a.72.72,0,0,1,0,.29v4.26a2.21,2.21,0,0,1-.42,1.55A1.09,1.09,0,0,1,183.68,139.88Z"/><path class="cls-1" d="M154.52,104.92a1.1,1.1,0,0,1,0-2.2l2.91-.09a1.13,1.13,0,0,1,1.13,1.07,1.1,1.1,0,0,1-1.07,1.13l-2.91.09Z"/><path class="cls-1" d="M82.79,70.29H66.29a1.1,1.1,0,0,1-1.1-1.1V37.82a1.1,1.1,0,0,1,1.1-1.1h16.5a1.1,1.1,0,0,1,1.1,1.1V69.19A1.1,1.1,0,0,1,82.79,70.29Zm-15.4-2.2h14.3V38.92H67.39Z"/><path class="cls-1" d="M79.79,81.94H69.29a1.1,1.1,0,0,1-1.1-1.1V69.21a1.1,1.1,0,0,1,1.1-1.1h10.5a1.1,1.1,0,0,1,1.1,1.1V80.84A1.1,1.1,0,0,1,79.79,81.94Zm-9.4-2.2h8.3V70.31h-8.3Z"/><path class="cls-1" d="M78.29,92.39h-7.5a1.1,1.1,0,0,1-1.1-1.1v-10a1.1,1.1,0,0,1,1.1-1.1h7.5a1.1,1.1,0,0,1,1.1,1.1v10A1.1,1.1,0,0,1,78.29,92.39Zm-6.4-2.2h5.3V82.34h-5.3Z"/><path class="cls-1" d="M93.65,102.13H62.8a1.1,1.1,0,0,1-1.1-1.1V91.37a1.1,1.1,0,0,1,1.1-1.1H88.48a1.1,1.1,0,0,1,.79.34L94.45,96a1.12,1.12,0,0,1,.3.76V101A1.1,1.1,0,0,1,93.65,102.13Zm-29.76-2.2H92.55V97.19L88,92.47H63.89Z"/><path class="cls-1" d="M98.61,100.56a1.12,1.12,0,0,1-.4-.07,22.74,22.74,0,1,1,31-21.2,22.62,22.62,0,0,1-14.41,21.16,1.1,1.1,0,0,1-1.5-1V87.7H99.71V99.46a1.09,1.09,0,0,1-.48.91A1.06,1.06,0,0,1,98.61,100.56Zm7.82-41.82a20.54,20.54,0,0,0-8.92,39.05V86.6a1.09,1.09,0,0,1,1.1-1.09h15.75a1.09,1.09,0,0,1,1.1,1.09V97.74a20.54,20.54,0,0,0-9-39Z"/><path class="cls-1" d="M98.61,92.77A1.15,1.15,0,0,1,98,92.6,15.8,15.8,0,1,1,115,92.53a1.12,1.12,0,0,1-1.13,0,1.1,1.1,0,0,1-.57-1V87.7H99.71v4a1.11,1.11,0,0,1-1.1,1.1Zm7.82-27.14a13.6,13.6,0,0,0-8.92,23.86V86.6a1.09,1.09,0,0,1,1.1-1.09h15.75a1.09,1.09,0,0,1,1.1,1.09v2.8a13.6,13.6,0,0,0-9-23.77Z"/><path class="cls-1" d="M113.35,81.94H99.21a1.1,1.1,0,0,1-1.1-1.1V72.35a1.09,1.09,0,0,1,1.1-1.09h14.14a1.09,1.09,0,0,1,1.1,1.09v8.49A1.1,1.1,0,0,1,113.35,81.94Zm-13-2.2h12V73.45h-12Z"/><path class="cls-1" d="M113.36,112.42H99.61a1.09,1.09,0,0,1-1.09-1l-1-11.85a1.08,1.08,0,0,1,.28-.84,1.09,1.09,0,0,1,.81-.36h15.75a1.09,1.09,0,0,1,.81.36,1.13,1.13,0,0,1,.29.84l-1,11.85A1.11,1.11,0,0,1,113.36,112.42Zm-12.74-2.2h11.73l.81-9.66H99.81Z"/><path class="cls-1" d="M113.75,107.81H99.22a1.1,1.1,0,1,1,0-2.2h14.53a1.1,1.1,0,0,1,0,2.2Z"/></svg>