<svg id="Layer_1" data-name="Layer 1" xmlns="http://www.w3.org/2000/svg" viewBox="0 0 236 236"><defs><style>.cls-1{fill:#414645;}</style></defs><title>Artboard 1 copy</title><path class="cls-1" d="M200.69,167.24V160l-.47-1.16-1.39-1.63-1.86-.93-3.72-.46V56.22l-.23-1.4-.69-1.39L190.7,51.8l-1.86-1.16-3.72-1.39-10.45-1.86-13.24-1.86-11.14-1.16-15.8-1.16-8.83-.46H110.8l-6,.23-13.47.93L78.51,45.07,66,46.69,56,48.32l-5.81,1.16-3,1.16L44.6,52.27l-.93,1.16-.92,2.09V155.86l-2.79.23-1.63.47L36.24,158l-.93,1.86-.23,7.66-.7.7V187l1.86,3.25,1.86,1.63,1.63,1.39H194.65L196,193l1.86-1.16,1.63-1.63,2.09-3.25V168.17Zm-9.76-.93,1.86-.23.23-1.86v-5.57l.23-.24,2.33.24,1.62.69.93,1.4.23,6.5-6.27.23H176.76v-1.16ZM45.3,56l.23-.46,1.4-1.86,2.78-1.39,4.88-1.16,13.94-2.33,13.7-1.62,11.61-.93,12.55-.7,9.52-.23,12.77.23L138,46l15.33,1.16L168.17,49l11.38,1.86L185.36,52l3,1.16,1.85,1.62.47,1.63V164.92H176.76l-.23-.23v-3.95H154.7l-1.63.23-.23,3.95H83.16l-.23-.23v-3.95H59.24v3.95l-.24.23H45.3l-.23-.23ZM174.91,162.13v5.11H154.47v-4.88l.23-.23Zm-22.07,4.18-.23,1.16H83.39l-.23-1.16ZM81.3,162.13v5.11H60.86v-4.88l.23-.23ZM37.64,161l.46-1.16,1.39-.93,2.79-.7h.47l.23,8.13H58.77l.47.23-.24.93H38.33l-.93-.23Zm161.65,13-.23,12.07-.93,1.63v.23l-1.39,1.63-1.63.93-48.54.23H62.26l-21.37-.23-.47-.24-2.09-1.39-1.62-2.79V169.8H199.29Z"/><path class="cls-1" d="M57.61,61.09H178.39l.46.24v92.44l-.69.46h-121l-.24-.23V61.56Zm.93,1.17-.23.23v90.58H177.23l.23-.23V62.49l-.23-.23Z"/><path class="cls-1" d="M115,50.41l-13.24.47-10.68.69-7,.93-.47.47h68.76v-.24l-8.13-1.16-8.83-.69L131,50.64l-13.71-.23Z"/><rect class="cls-1" x="68.61" y="185.54" width="98.79" height="2.25"/><path class="cls-1" d="M53.86,184.31a5.45,5.45,0,1,1,5.45-5.45A5.46,5.46,0,0,1,53.86,184.31Zm0-8.9a3.45,3.45,0,1,0,3.45,3.45A3.44,3.44,0,0,0,53.86,175.41Z"/><path class="cls-1" d="M87.61,211.63a5.45,5.45,0,1,1,5.45-5.45A5.46,5.46,0,0,1,87.61,211.63Zm0-8.9a3.45,3.45,0,1,0,3.45,3.45A3.46,3.46,0,0,0,87.61,202.73Z"/><path class="cls-1" d="M87.61,227a5.45,5.45,0,1,1,5.45-5.45A5.46,5.46,0,0,1,87.61,227Zm0-8.9a3.45,3.45,0,1,0,3.45,3.45A3.45,3.45,0,0,0,87.61,218.09Z"/><circle class="cls-1" cx="88.43" cy="177.67" r="3.26"/><circle class="cls-1" cx="108.14" cy="177.67" r="3.26"/><circle class="cls-1" cx="127.86" cy="177.67" r="3.26"/><circle class="cls-1" cx="147.57" cy="177.67" r="3.26"/><path class="cls-1" d="M180.6,186.79a6.82,6.82,0,1,1,6.82-6.82A6.83,6.83,0,0,1,180.6,186.79Zm0-11.13a4.32,4.32,0,1,0,4.32,4.31A4.31,4.31,0,0,0,180.6,175.66Z"/><path class="cls-1" d="M44.75,143.86H33.57V128.57H44.75Zm-9.18-2h7.18V130.57H35.57Z"/><path class="cls-1" d="M44.75,124.57H33.57V109.29H44.75Zm-9.18-2h7.18V111.29H35.57Z"/><polygon class="cls-1" points="83.16 207.18 22.43 207.18 22.43 135.54 34.38 135.54 34.38 137.54 24.43 137.54 24.43 205.18 83.16 205.18 83.16 207.18"/><polygon class="cls-1" points="83.16 222.54 12.43 222.54 12.43 114.89 34.38 114.89 34.38 116.89 14.43 116.89 14.43 220.54 83.16 220.54 83.16 222.54"/></svg>