<svg id="Layer_1" data-name="Layer 1" xmlns="http://www.w3.org/2000/svg" viewBox="0 0 236 236"><defs><style>.cls-1{fill:#414645;}</style></defs><title>Artboard 1 copy 2</title><path class="cls-1" d="M172.52,97.11l-.68-19.24-.23-2.72-.68-.68L169.12,74H143.31l-1.58.45L140.6,75.6l-.23,24.9v34.55l.45,1.14,1.15.95h30.27l1.18-1.18V123.14L173.2,115Zm0,38.62-.46.46H142l-.23-.23-.23-14.86V78.54l.23-2.94.23-.23,1.35-.45H166l4.3.23.23.22.45,1.14.23,8.15.68,19,.22,12.23.46,14Z"/><path class="cls-1" d="M177.35,128.65l-.47-23.08-.47-10.12-.48-16.26-.47-7.53L175,69.77l-.94-1.17-2.36-.47L146,67.89H88.32L66,68.13l-.71.23-.94.94-.95,1.42-.47,1.41-.23,3.77-.24,8.71-.23,4.48-.47,14.36-.24,12.49L61,132.42v6.13l.23,1.88.71,1.18,1.18.94,2.12.47h8.24l.42,0h44.57v0h54.64l2.12-.23,1.41-1.18.71-1.41.23-2.6Zm-1.42,12-.7.7-3.06.47h-32l-75.83-.23-1.18-.47-.47-.94,4.24.23h46.4l61.47-.23.7-.24h.47Zm.24-3.07-.94,1.42-1.39.15v.06h-.56l-.17,0v0H142.49v0H64.06l-.71-.23-.7-.71-.47-1.65.23-7.77.71-20.49.94-34.62.24-2.36.47-.94L66,69.54l42.39-.24h11.78l52.28.24.94.23.47.47.48,1.18.47,8,.7,25.2.71,23.55Z"/><path class="cls-1" d="M72.78,74H135l1.42.71.94,1.18v50.16l-.71,1.18-1.18.94-8.47.24H73.25L71.36,128,70,126.3l-.24-1.88V77.31l.47-1.41,1.18-1.42Zm27.79,1.18-28.5.24-.71.94V126.3l.71.71h63.12l.71-.71.23-32.5V85.32l-.23-9.19-1-.7Z"/><path class="cls-1" d="M163.82,179.74a13.25,13.25,0,1,1,13.25-13.25A13.26,13.26,0,0,1,163.82,179.74Zm0-24.7a11.45,11.45,0,1,0,11.45,11.45A11.46,11.46,0,0,0,163.82,155Z"/><path class="cls-1" d="M163.82,172.34a5.85,5.85,0,1,1,5.86-5.85A5.86,5.86,0,0,1,163.82,172.34Zm0-9.9a4.05,4.05,0,1,0,4.06,4.05A4.05,4.05,0,0,0,163.82,162.44Z"/><path class="cls-1" d="M156.32,100.45a11,11,0,1,1,11-11A11,11,0,0,1,156.32,100.45Zm0-20.86a9.9,9.9,0,1,0,9.89,9.9A9.91,9.91,0,0,0,156.32,79.59Z"/><path class="cls-1" d="M156.32,96.05a6.56,6.56,0,1,1,6.55-6.56A6.56,6.56,0,0,1,156.32,96.05Zm0-12a5.5,5.5,0,1,0,5.49,5.49A5.49,5.49,0,0,0,156.32,84Z"/><rect class="cls-1" x="154.3" y="83.65" width="1.06" height="11.68"/><rect class="cls-1" x="157.48" y="83.65" width="1.06" height="11.68"/><path class="cls-1" d="M163.56,116.83h-13.3a3.72,3.72,0,0,1,0-7.43h13.3a3.72,3.72,0,0,1,0,7.43Zm-13.3-6.37a2.66,2.66,0,0,0,0,5.31h13.3a2.66,2.66,0,0,0,0-5.31Z"/><path class="cls-1" d="M135.65,178.88H122.36a4.25,4.25,0,0,1,0-8.5h13.29a4.25,4.25,0,0,1,0,8.5Zm-13.29-6.37a2.12,2.12,0,1,0,0,4.24h13.29a2.12,2.12,0,1,0,0-4.24Z"/><path class="cls-1" d="M163.56,128.21h-13.3a3.72,3.72,0,0,1,0-7.43h13.3a3.72,3.72,0,0,1,0,7.43Zm-13.3-6.37a2.66,2.66,0,0,0,0,5.31h13.3a2.66,2.66,0,0,0,0-5.31Z"/><path class="cls-1" d="M135.65,161.57H122.36a4.25,4.25,0,1,1,0-8.49h13.29a4.25,4.25,0,1,1,0,8.49Zm-13.29-6.37a2.13,2.13,0,1,0,0,4.25h13.29a2.13,2.13,0,1,0,0-4.25Z"/><path class="cls-1" d="M104.65,183.38H64.92a4.91,4.91,0,0,1-4.9-4.9V155.86a4.91,4.91,0,0,1,4.9-4.91h39.73a4.91,4.91,0,0,1,4.91,4.91v22.62A4.91,4.91,0,0,1,104.65,183.38ZM64.92,152.92A2.94,2.94,0,0,0,62,155.86v22.62a2.94,2.94,0,0,0,2.94,2.94h39.73a2.94,2.94,0,0,0,2.94-2.94V155.86a2.94,2.94,0,0,0-2.94-2.94Z"/><path class="cls-1" d="M173.37,194.58H62.63a14.08,14.08,0,0,1-14.06-14.06V73.23A14.08,14.08,0,0,1,62.63,59.16H173.37a14.08,14.08,0,0,1,14.06,14.07V180.52A14.08,14.08,0,0,1,173.37,194.58ZM62.63,61.82A11.42,11.42,0,0,0,51.22,73.23V180.52a11.42,11.42,0,0,0,11.41,11.41H173.37a11.42,11.42,0,0,0,11.41-11.41V73.23a11.42,11.42,0,0,0-11.41-11.41Z"/><path class="cls-1" d="M177.92,61.87,59.45,61.55l6.16-15.81a6.34,6.34,0,0,1,5.93-4.06h92a6.35,6.35,0,0,1,5.64,3.43ZM62.55,59.43l111.87.31-7.13-13.65a4.22,4.22,0,0,0-3.76-2.28h-92a4.21,4.21,0,0,0-4,2.7Z"/><path class="cls-1" d="M154.88,55.47,81.21,55.2l2.07-7.15H152ZM84,53.09l67.75.25-1.23-3.16H84.88Z"/><path class="cls-1" d="M228.4,98.6a1.34,1.34,0,0,0-1.56-.88,3.37,3.37,0,0,0-1.37.32,41.83,41.83,0,0,0-7.57,4.42c-1.2.86-2.41,2.24-3.77,2.65a7.44,7.44,0,0,1-3.52.19,30.32,30.32,0,0,1-3.57-.82,7.42,7.42,0,0,1,1-.91,32.25,32.25,0,0,0,4.41-3.63,6.7,6.7,0,0,1,2.32-1.53,48.94,48.94,0,0,0,8.69-3.84,9.23,9.23,0,0,0,2.16-1.91,2.19,2.19,0,0,0,.32-2.14,1.89,1.89,0,0,0-1.37-1.41,3,3,0,0,0-1.49,0,17.15,17.15,0,0,0-6.41,3.51c-1.71,1.32-3.27,3.09-5.54,3.14-1.73,0-3.24,0-4.93.11.05-.15-.11-.16,0-.33a3.11,3.11,0,0,1,.47-.63c1.18-1.19,2.3-2.5,3.43-3.76a6.32,6.32,0,0,1,2.51-2,39.6,39.6,0,0,0,8-3.36,8.24,8.24,0,0,0,2.06-2,2.28,2.28,0,0,0,.07-2.31,2.15,2.15,0,0,0-1.59-1.49,2.8,2.8,0,0,0-2,.34c-2.25,1.45-4.37,3-6.55,4.54-1.09.77-1.78,2-3.12,2.4-.79.22-1.49.48-2.27.62-1.32.22-2.63.32-3.94.52a2.89,2.89,0,0,1,.17-.52c2-2.9,3.5-5.58,6.81-7.19A19.1,19.1,0,0,0,217,75.75a5.59,5.59,0,0,0,1.14-2.3,3,3,0,0,0-2-3.37,2.25,2.25,0,0,0-1.92.46c-2.38,1.82-4,4.58-5.83,6.86a6.26,6.26,0,0,1-2.4,2.26c-.73.29-1.38.6-2.09.86-1.32.48-2.64.84-4,1.26,0-.16-.13-.06-.06-.28a4.14,4.14,0,0,1,.38-.93c.88-1.42,1.63-2.88,2.46-4.37a8.29,8.29,0,0,1,1.85-2.35,32.87,32.87,0,0,0,4.94-5.24,7.4,7.4,0,0,0,1.73-4.41,3.65,3.65,0,0,0-1.12-2.45,2,2,0,0,0-2.21-.52,4.21,4.21,0,0,0-1.95,1.3c-1.64,2.37-2.11,5.52-3.3,8.14a7.39,7.39,0,0,1-1.36,2.24,9.77,9.77,0,0,1-2.12,1.49c-1.3.76-2.59,1.45-4,2.1,0-.09-.22-.12-.19-.21.19-.64.32-1.17.54-1.83a117.92,117.92,0,0,0,3.69-14.14c.49-2.32-1.51-4.63-4.23-5.63A47.73,47.73,0,0,0,189.16,53a44.71,44.71,0,0,1-6.24-1.37c-.66-.26-11.67-.2-12.13-.56l2.82,3.55c.45-.06,8.7-.74,9.1-.68,2.84.36,6.86,1.31,9.33,1.83s4.11,2,4.09,3.78c-.06,5-1.27,8.66-2.47,13.14a21.35,21.35,0,0,0-.88,3.5c-.18,1.88.9,2.4,2.64,2.21a16.53,16.53,0,0,0,2.58-.71c.43-.12.84-.38,1.25-.54-.34,1.14-1.05,2.38-1.37,3.49-.63,2.16.05,3.26,2.32,3.28,1.1,0,2.26-.48,3.37-.56-.12.2-.28.41-.39.62-.58,1.14-1.41,2.28-1.9,3.43-.64,1.53-.16,2.65,1.35,3.14a9.13,9.13,0,0,0,2.36.23c.72,0,1.26-.11,1.94-.11a9.89,9.89,0,0,0-.85,1c-.73,1.15-1.74,2.47-2.39,3.54a1.66,1.66,0,0,0,.6,2.48,11.21,11.21,0,0,0,2.66,1A17.9,17.9,0,0,0,209,99c-.87.94-1.9,1.92-2.76,2.83a4,4,0,0,0-1.41,3.08,2.47,2.47,0,0,0,1.68,2.18,14.83,14.83,0,0,0,2.88.85,31.27,31.27,0,0,1-3.68,2.33c-1.29.69-1.66,1.47-2.41,2.77a28.78,28.78,0,0,1-5.86,6.65c-2.1,1.9-4,2.94-6.73,2.65-.07,0,0-.06-.19,0a1.89,1.89,0,0,0-.71.23c-1,.81-1.94,1.57-2.85,2.48a6.58,6.58,0,0,0-1.87,3.2,2.61,2.61,0,0,0,.86,2.62,2.68,2.68,0,0,0,3.07.8c2-.62,3.66-2.26,5.39-3.49a1.8,1.8,0,0,0,.5-.85c.26-.92.57-1.82.85-2.75a4.38,4.38,0,0,1,1.55-2.07c2.9-2.61,6.21-5.49,8-8.87.6-1.1.79-1.33,1.69-1.77,2.09-1,3.89-2.13,5.82-3.3a23.85,23.85,0,0,1,3.05-1.42c2.92-1.26,5.67-2.64,8.46-4a16.8,16.8,0,0,0,3.27-2.38A2.06,2.06,0,0,0,228.4,98.6Zm-36.3,27.9c-.5.36-1.44.66-2,.16s0-1.19.47-1.54,1.41-.61,1.9-.1S192.59,126.15,192.1,126.5Z"/><path class="cls-1" d="M7.4,100.73a17,17,0,0,0,3.26,2.38c2.8,1.4,5.55,2.78,8.46,4a24,24,0,0,1,3.06,1.42,66.75,66.75,0,0,0,5.81,3.3c.91.44,1.1.67,1.69,1.77,1.85,3.38,5.16,6.26,8,8.87a4.32,4.32,0,0,1,1.55,2.07c.28.93.59,1.83.85,2.75a1.9,1.9,0,0,0,.51.85c1.73,1.23,3.4,2.87,5.38,3.49a2.67,2.67,0,0,0,3.07-.8,2.63,2.63,0,0,0,.87-2.62,6.66,6.66,0,0,0-1.87-3.2c-.92-.91-1.9-1.67-2.86-2.48a1.78,1.78,0,0,0-.71-.23c-.15,0-.12,0-.18,0-2.78.29-4.64-.75-6.74-2.65a29,29,0,0,1-5.86-6.65,5.66,5.66,0,0,0-2.41-2.77A33,33,0,0,1,25.65,108a14.83,14.83,0,0,0,2.88-.85,2.48,2.48,0,0,0,1.69-2.18,4,4,0,0,0-1.42-3.08c-.86-.91-1.89-1.89-2.75-2.83a17.74,17.74,0,0,0,2.06-.31,11.28,11.28,0,0,0,2.67-1,1.67,1.67,0,0,0,.59-2.48c-.64-1.07-1.65-2.39-2.38-3.54a10,10,0,0,0-.86-1c.68,0,1.22.15,1.95.11a9.1,9.1,0,0,0,2.35-.23c1.52-.49,2-1.61,1.35-3.14-.49-1.15-1.31-2.29-1.89-3.43-.11-.21-.28-.42-.4-.62,1.11.08,2.27.56,3.38.56,2.26,0,3-1.12,2.32-3.28-.33-1.11-1-2.35-1.37-3.49.4.16.82.42,1.24.54a16.84,16.84,0,0,0,2.58.71c1.74.19,2.83-.33,2.65-2.21a21.35,21.35,0,0,0-.88-3.5c-1.2-4.48-2.41-8.16-2.48-13.14,0-1.82,1.62-3.25,4.09-3.78s6.49-1.47,9.34-1.83c.4-.06,11.2.38,11.66.45V51.09c-.46.36-11.21.3-11.88.56A44.39,44.39,0,0,1,45.9,53a47.73,47.73,0,0,0-5.81,1.67c-2.72,1-4.72,3.31-4.23,5.63a117.92,117.92,0,0,0,3.69,14.14c.23.66.35,1.19.54,1.83,0,.09-.18.12-.18.21-1.37-.65-2.67-1.34-4-2.1a10,10,0,0,1-2.12-1.49,7.39,7.39,0,0,1-1.36-2.24c-1.19-2.62-1.65-5.77-3.3-8.14a4.21,4.21,0,0,0-1.95-1.3,2,2,0,0,0-2.2.52,3.56,3.56,0,0,0-1.12,2.45,7.28,7.28,0,0,0,1.73,4.41,33.27,33.27,0,0,0,4.93,5.24A8.11,8.11,0,0,1,32.4,76.2c.83,1.49,1.58,3,2.46,4.37a4.79,4.79,0,0,1,.39.93c.07.22-.09.12-.07.28-1.34-.42-2.66-.78-4-1.26-.71-.26-1.37-.57-2.1-.86a6.26,6.26,0,0,1-2.4-2.26c-1.87-2.28-3.45-5-5.82-6.86A2.26,2.26,0,0,0,19,70.08a3,3,0,0,0-2,3.37,5.46,5.46,0,0,0,1.13,2.3,19.22,19.22,0,0,0,6.84,4.88c3.31,1.61,4.82,4.29,6.81,7.19a4,4,0,0,1,.17.52c-1.32-.2-2.63-.3-3.94-.52-.78-.14-1.48-.4-2.28-.62-1.34-.38-2-1.63-3.12-2.4-2.17-1.55-4.29-3.09-6.55-4.54a2.79,2.79,0,0,0-2-.34,2.17,2.17,0,0,0-1.59,1.49,2.32,2.32,0,0,0,.07,2.31,8.12,8.12,0,0,0,2.07,2,39.52,39.52,0,0,0,8,3.36,6.35,6.35,0,0,1,2.52,2c1.13,1.26,2.24,2.57,3.42,3.76a2.78,2.78,0,0,1,.47.63c.09.17-.06.18,0,.33-1.7-.11-3.21-.07-4.93-.11-2.28,0-3.83-1.82-5.55-3.14A17,17,0,0,0,12,89.09a3,3,0,0,0-1.49,0,1.88,1.88,0,0,0-1.36,1.41,2.17,2.17,0,0,0,.32,2.14,9.18,9.18,0,0,0,2.15,1.91,48.94,48.94,0,0,0,8.69,3.84,6.83,6.83,0,0,1,2.33,1.53,31.66,31.66,0,0,0,4.41,3.63,8.13,8.13,0,0,1,1,.91,30,30,0,0,1-3.58.82,7.45,7.45,0,0,1-3.52-.19c-1.36-.41-2.56-1.79-3.77-2.65A41.75,41.75,0,0,0,9.6,98a3.46,3.46,0,0,0-1.38-.32,1.34,1.34,0,0,0-1.56.88A2.05,2.05,0,0,0,7.4,100.73ZM42.55,125c.5-.51,1.39-.26,1.91.1s1,1,.46,1.54-1.46.2-2-.16S42.06,125.53,42.55,125Z"/></svg>