<svg id="Layer_1" data-name="Layer 1" xmlns="http://www.w3.org/2000/svg" viewBox="0 0 236 236"><defs><style>.cls-1{fill:#414645;}</style></defs><title>Artboard 1 copy 4</title><path class="cls-1" d="M71.63,203.06H121l.48.24,3.86,4.1,1.21.72,37.86.25h2.41V103.23l-.24-38.94-37.14-.24-.48-.24-1.45-1.69L125.3,60l-1.45-.72H121.2V27.88l-.48-.25H114l-2.41.25-.24.24V59.23H69.7l-.24.24-.24,143.59Zm92.5,3.13H127.71l-.48-.24-2.9-2.89-1-1-1.21-1.2-50.53-.24v-4.1h92.5Zm0-14.95H141.7V180.87l.24-.24h22.19Zm0-38H141.7V142.66h22.43Zm0-37.74H141.94l-.24-.24V104.68l22-.24.72.24ZM141.7,67l.24-.25h22.19V77.32l-.24.24-22.19-.24Zm-22.19-5.31.24-.24h3.38l.48.24,2.9,3.13,1.92,1.69L140,66.7v1.45h-20.5Zm0,8.2.24-.24H140v4.34h-20.5Zm-5.79-39.79H119V59l-.24.24h-5.07Zm4.34,31.35V75.87l-.24.48-1.44.24-1-.48V61.4Zm-46.43,0H114l.25,15.92.48.24h4.1l.48-.24.48-1.69H140l.24,3.37,23.88-.24v2.41H71.87l-.24-.24Zm0,21,92.5.24v19.65H129.64l-.48-.24-4.58-4.59-6-.24H74L71.63,97Zm47.88,23.75V99.37l.48-.24h2.66l.72.24,3.14,3.38,1.92,1.69,11.58.24v1.45Zm20.5,1.68v4.1h-20.5v-4.1Zm-21.95-8.44v14.47l-.24.49h-2.17l-.24-.24V99.37l.48-.24Zm-46.43-.24h39.92l2.41.24.25,16.16h4.58l.48-.24.48-1.69H140l.24,3.38h23.88v2.17h-19.3l-73.2-.24-.24-19.29Zm-.24,22.19.24-1,92.5.24V140l-1,.24H129.64l-.48-.24L126,136.87l-.48-1h-.48l-1.21-.72-52.22-.24-.24-.24Zm48.12,22.78v-6.75l.72-.24h2.18l.72.24,1,.72,1.69,1.93,1.93,1.93,1.45.48h10.13l.72.25v1.44Zm20.5,1.45v4.34h-20.5v-4.1l.24-.24Zm-21.95-8.2v14.47l-.24.48h-1.93l-.48-.48V137.35l.48-.24h1.69Zm-46.43-.24,42.33.24.25,15.92,1.68.24h2.17l1.21-.24.48-1.69H140l.24,3.13h23.88v2.17H71.63l-.24-19.29Zm-.24,23.39.24-1.93,87-.24h5.31l.24.24V178l-1,.24H130.61l-1.45-.24-1.69-1.69-2.17-2.41-1.45-1H71.63l-.24-.48Zm48.12,21.58v-6.75l.72-.25h2.18l1.2.49,2.9,3.13,1.92,1.69,11.58.24v1.45Zm20.5,1.69v4.1h-20.5v-4.1l.24-.25Zm-21.95-8.44v14.22l-.24.73-1.68.24-.73-.48V175.33l.48-.25h1.69Zm-46.43-.25,42.33.25.25,16.15h4.58l.48-.24.48-1.69H140l.24,3.14h23.88v2.17H71.63l-.24-19.29Z"/><path class="cls-1" d="M158.2,98.57h-23a2.5,2.5,0,0,1-2.49-2.49V88.33a2.5,2.5,0,0,1,2.49-2.49h23a2.49,2.49,0,0,1,2.49,2.49v7.75A2.49,2.49,0,0,1,158.2,98.57Zm-23-11.43A1.2,1.2,0,0,0,134,88.33v7.75a1.19,1.19,0,0,0,1.19,1.19h23a1.19,1.19,0,0,0,1.19-1.19V88.33a1.19,1.19,0,0,0-1.19-1.19Z"/><path class="cls-1" d="M158.2,136.66h-23a2.49,2.49,0,0,1-2.49-2.49v-7.74a2.49,2.49,0,0,1,2.49-2.49h23a2.48,2.48,0,0,1,2.49,2.49v7.74A2.48,2.48,0,0,1,158.2,136.66Zm-23-11.42a1.19,1.19,0,0,0-1.19,1.19v7.74a1.19,1.19,0,0,0,1.19,1.19h23a1.19,1.19,0,0,0,1.19-1.19v-7.74a1.19,1.19,0,0,0-1.19-1.19Z"/><path class="cls-1" d="M158.2,174.76h-23a2.5,2.5,0,0,1-2.49-2.5v-7.74a2.5,2.5,0,0,1,2.49-2.49h23a2.49,2.49,0,0,1,2.49,2.49v7.74A2.49,2.49,0,0,1,158.2,174.76Zm-23-11.43a1.19,1.19,0,0,0-1.19,1.19v7.74a1.2,1.2,0,0,0,1.19,1.2h23a1.19,1.19,0,0,0,1.19-1.2v-7.74a1.19,1.19,0,0,0-1.19-1.19Z"/><path class="cls-1" d="M82.41,93.5h-7v-7h7Zm-5.68-1.3h4.38V87.82H76.73Z"/><path class="cls-1" d="M92.69,93.5h-7v-7h7ZM87,92.2h4.37V87.82H87Z"/><path class="cls-1" d="M103,93.5H96v-7h7ZM97.3,92.2h4.38V87.82H97.3Z"/><path class="cls-1" d="M82.41,130.91h-7v-7h7Zm-5.68-1.3h4.38v-4.37H76.73Z"/><path class="cls-1" d="M92.69,130.91h-7v-7h7ZM87,129.61h4.37v-4.37H87Z"/><path class="cls-1" d="M103,130.91H96v-7h7Zm-5.68-1.3h4.38v-4.37H97.3Z"/><path class="cls-1" d="M82.41,168.33h-7v-7h7ZM76.73,167h4.38v-4.38H76.73Z"/><path class="cls-1" d="M92.69,168.33h-7v-7h7ZM87,167h4.37v-4.38H87Z"/><path class="cls-1" d="M103,168.33H96v-7h7ZM97.3,167h4.38v-4.38H97.3Z"/></svg>