<svg id="Layer_1" data-name="Layer 1" xmlns="http://www.w3.org/2000/svg" viewBox="0 0 236 236"><defs><style>.cls-1{fill:#3e4445;}</style></defs><title>Artboard 1 copy 5</title><path class="cls-1" d="M175.27,105.61v-2.4L175,103l-4.85-.23V36.91l3.24-.23.92-.46V30l-.46-1.39-14.79-.23H91.4l-7.16.23-.23.23v7.86l3.93.23V52.16H85.86V41.3l-.46-.46H44.27l-.46.23V75l.23.23,41.75.23v-.62l.07-.07V61.86h2.31L87.94,63V101.6l-.23-.93-.7-9-.46-9-.23-.23H64.14l-.23.69-.46,7.17-2.08-1.62-4.85-3-5.78-.24-.46-.92H43.12l-.7.69v5.55l.23,2.77L41.5,95.13l-1.62,3L38.5,103l-.7,4.85v3.7l.7,4.85L39.88,121l1.62,3.24,1.85,2.08,2.31,1.15.23,2.54.69.47,1.16-.47v-2.77h.46l1.85-1.15,1.61-1.85,1.39-2.31,1.39-4.16.69-4.62V106l-.23-1.85-.69-3.24-1.16-3.46L51,94l-.69-1.61,1.15-.24H54.9l1.85.93,5.31,3.7.93.46-.7,13.63-1.38.23-1.16.46v7.16l.23.23,2.77.24.24,3.92.23.46,1.38.24.46,10.16L66,152.19H68.3l.23,2.31v24.26l-.23,4.16-2.08.23-.23.23v12.25l.69.46,2.08.23v.92l-1.62,2.08-.69,1.85.23,2.54.93,1.85L69.22,207l1.85.69h1.85l1.62-.69,1.61-1.62.93-1.85v-3l-.23-.46-1.39-2.31-.92-1.62h90.1l-.23.46L163,198.63l-1.15,2.31v1.85l.23.92.69,1.39,1.16,1.38,2.31,1.16h1.84l2.31-1.16,1.16-1.38.92-1.62v-3l-.23-.46-1.61-2.55-.47-1.15,2.78-.46V183.38l-.93-.46h-9.7v-5.31H172l.23-.24.23-54.29,1.39-3,1.39-3.7V105.61ZM46.12,73.18,45.89,73V43.15l10.4-.23H83.55V73l.23.23Zm-1.39,13.4h3.7l.23.46-.23,4.16-2.54.23-1.16-.23Zm6.47,12,1.16,4.16.69,4.85V112l-.69,4.85L51,121.23l-1.62,2.55-1.84,1.38H46.12l-1.39-.46L44,124l-1.39-2.08-1.15-2.77L40.58,115l-.47-3.93v-3l.23-2.55.47-2.77L42,99.06l1.16-2.55,1.61-1.84,1.62-.7h.93l.92.46,1.85,2.08Zm34.66-64v-3l.23-.46h86.17v3.24l-.23.23-81.09.23ZM168.1,84v18.48l-.23.23H90.25V84ZM90.25,82.42V36.68h40.43V82.42Zm42,0V36.68H168.1V82.42ZM89.78,177.57l70.24,0,.23.46-.23,4.85-70,.23-.24-.23Zm-1.84-118-.23.23H86.32l-.46-.23V54.24h2.31Zm0,44.36h.23v1.38h-.23ZM65.76,88.66,66,84.73l.23-.23H84.47l.23,4.62,1.16,17.33v4.62h-6l-.23-9.7L78,100l-10.16-6.7-2.08-1.62Zm-6,3.7-3.23-2.08-1.39-.47H51.2l-.46-.23L50.51,88l.46-.23h4.62l.46.23L75.46,100.9l2.08,1.62v8.55H75.46l-.23-7.39-.23-.47-3.24-2.31-4.15-3L63,94.67Zm13.4,12.47v6l-.23.23H64.83l-.23-.23.46-11.78h.47l3,2.07L72,103.68Zm-11.09,12v-3.69H87.94l.23.23v3l-.23.46Zm26.11,6.47v44.36l-.23,15.25-16.64.23-.69-.23V152.19L84.24,152l.23-.23.23-3.23.93-19.41.46-5.31,1.38-.47Zm-23.11-1.84v-2.31l.24-.24H85.63v2.55Zm3,28.64-1.16-22.87v-3.46H83.78v3l-.46,8.32L82.62,149l-.23,1.15Zm6.7,50.37.23,1.85-.46,1.61-1.39,1.16-1.62.23-1.61-.69L69,203.48l-.46-1.39.23-1.15.93-1.39,2.07-.69,1.85.46Zm-3.93-3.93.69-.69,1.16.23v.69H71.07Zm99.57,4.62-.23,2.31L169,204.64l-1.62.69L166,205.1l-.92-.69-.92-1.39v-2.08l.69-1.16,1.15-.69h2.55l.92.69Zm-3.92-5.08.46-.23,1.15.23-.23.69h-1.15Zm4.39-10.86v8.55H68.07v-8.55ZM170,176H89.78V124.93l.24-.23H170Zm2.77-58.91-.46,1.38-1.61,3.7-.7.92H90.25V105.29l.23-.23h82.71v.87h0l.23,9.3Z"/><path class="cls-1" d="M148,45.46l1.62.23.69,1.85-.23.23v2.31h.47l-.24-2.31.24-1.62.23-.46h11.55l.23.46.23,3.93.92.69V75.72l-.46.23h-26.1l-.47-.69V51l1.16-.69V47.54l.23-1.62.23-.23Zm-7.85,2.31-.23.23v2.31l.69.23,7.39-.23V47.77Zm12.48,0v2.54h7.85V47.77ZM139,52.62l-.23.46.23,21,10.17-.23V52.62Zm12.48,0V73.87h10.17v-21l-.24-.23Z"/><path class="cls-1" d="M48.59,45.46H81.08l.23.22V67.93l-.23,1.56-.44.22H48.81l-.22-.22Zm1.78,1.33-.22.22V68.38l29.38-.22.22-.67V47l-.22-.22Z"/><path class="cls-1" d="M106.92,50h5.31l.24.46V64.09l-.24.24-1.61.23h-2.54l-1.16-.23-.23-14.1Zm1.62,1.39-.23.23V62.71l.23.23h2.31V51.39Z"/><path class="cls-1" d="M105.81,90.16h2.54l1.85,1.62.23.46v2.08l-.92,1.39-1.39.92h-2.31l-1.62-1.39-.46-.69V92.24l1.62-1.85Zm.23,1.39-.92,1.15.23,1.62L106,95l1.62.23,1.15-.92.24-1.39-.47-.92-.69-.46Z"/><path class="cls-1" d="M95.92,90.16H98l1.39.93.69.69.23.69v2.08l-1.38,1.62-1.16.46H95.46l-1.15-.92-.7-1.16V92.47L95,90.62Zm.47,1.39-1.16.69L95,93.86,95.69,95l.46.23h1.62l.93-.92.23-1.16L98.23,92l-.92-.46Z"/><path class="cls-1" d="M136.18,90.05l1.85.46,1.15,1.15.69,1.16-.23,2.08-1.85,1.61-.46.24h-2.08l-1.61-1.16-.7-1.39.23-2.08,1.62-1.61Zm-.46,1.61-.93.46-.46,1.39L135,94.9l1.16.69,1.38-.46.7-.7V92.82l-.7-.93Z"/><path class="cls-1" d="M115.24,90.16h2.31l1.38.93.7.92.23,1.62-.46,1.61-.93.93-1.38.46h-1.85l-.93-.46-1.15-1.85V92.24l1.62-1.85Zm.46,1.39-.92.46-.24.46v1.39l.7,1.15.46.23h1.39l1.15-.92.23-.92L117.78,92l-.92-.46Z"/><path class="cls-1" d="M124.79,90.16h2.31l1.38.93.7.92v2.31l-.93,1.39-1.15.92h-2.31l-1.62-1.39-.46-.92V92.24l1.61-1.85Zm.92,1.16-1.39.69-.23,1.62.7,1.15.69.46,1.39-.23.92-.69V92.7l-.92-1.15Z"/><path class="cls-1" d="M76.62,201.63l.46.23v1.62l-.93,1.85L74.54,207l-1.62.69H71.07l-.69-.46h.46l-.46-.93-.23-.69.69-.46,2.31-.23,1.16-.93.46-1.61,1.62-.47Z"/><path class="cls-1" d="M172,184.77l.93.23v6.7l-1.16.23-.92-.46v-5.32l.92-.69Z"/><path class="cls-1" d="M114.54,74.49h1.62l1.16,1.16.23,1.38-.69,1.16-.7.46h-1.62l-1.15-1.16-.23-1.61.92-1.16Zm.24,1.16-.24,1.15.47.46.92-.23V75.65Z"/><path class="cls-1" d="M108.54,74.49h1.85l1.15,1.16.23.92L111.08,78l-.92.69-1.85-.23-.93-.93V75.65Zm.69.92-.46.47V77l.92.23.47-.23V75.88Z"/><path class="cls-1" d="M102.76,74.49l1.85.23.69.69.23,1.62-.92,1.39-1.39.23L101.61,78l-.47-.7V75.65l.93-.93Zm.23,1.16-.46.46.23.92.93.23.46-.23V75.88Z"/><path class="cls-1" d="M169.49,204.17h1.16l.23.93.46.23-.93,1.15-1.61.93h-1.39l-.92-1.39.23-.92,2.08-.46Z"/><path class="cls-1" d="M43.12,84.5h3l-.23.46-1.16.7h-.46l-.23.69L42.65,87.5l-.23-2.31Z"/><path class="cls-1" d="M165.56,82.65h1.85V84H165.1Z"/><path class="cls-1" d="M169.49,204.17l.46.7v.69l-1.61.46-.93.23V205.1l1.62-.69Z"/><path class="cls-1" d="M42.19,121.47h.46l.93,1.61v.7l-.93-.24-.92-.46L42,121.7Z"/><rect class="cls-1" x="89.14" y="158.32" width="82.77" height="1.6"/><rect class="cls-1" x="89.14" y="140.65" width="82.77" height="1.6"/><path class="cls-1" d="M143,134.06a29.92,29.92,0,0,1-6.22,1.33c-1,.16-2.07.19-3.1.28s-2.07.07-3.11.09-2.07,0-3.11-.09-2.07-.13-3.11-.28a30,30,0,0,1-6.21-1.33v-.2l12.43-.09,12.43.09Z"/><path class="cls-1" d="M143,151.84a30.55,30.55,0,0,1-6.22,1.32c-1,.16-2.07.19-3.1.28s-2.07.07-3.11.09-2.07,0-3.11-.09-2.07-.13-3.11-.28a30.6,30.6,0,0,1-6.21-1.32v-.2l12.43-.1,12.43.1Z"/><path class="cls-1" d="M143,169.69a29.92,29.92,0,0,1-6.22,1.33c-1,.16-2.07.19-3.1.28s-2.07.06-3.11.09-2.07,0-3.11-.09-2.07-.13-3.11-.29a29.94,29.94,0,0,1-6.21-1.32v-.2l12.43-.1,12.43.1Z"/><path class="cls-1" d="M98.56,111.28a2.1,2.1,0,1,1-2.09,2.1,2.1,2.1,0,0,1,2.09-2.1m0-1.6a3.7,3.7,0,1,0,3.7,3.7,3.7,3.7,0,0,0-3.7-3.7Z"/><path class="cls-1" d="M110.78,111.28a2.1,2.1,0,1,1-2.1,2.1,2.1,2.1,0,0,1,2.1-2.1m0-1.6a3.7,3.7,0,1,0,3.69,3.7,3.7,3.7,0,0,0-3.69-3.7Z"/><path class="cls-1" d="M161.21,90.06a5.06,5.06,0,1,1-7.48.36l4.16,4.15.87-.87-4.13-4.13A5,5,0,0,1,161.21,90.06Z"/><path class="cls-1" d="M126.5,69.79H94.36V39.07H126.5Zm-30.14-2H124.5V41.07H96.36Z"/></svg>