<svg id="Layer_1" data-name="Layer 1" xmlns="http://www.w3.org/2000/svg" viewBox="0 0 236 236"><defs><style>.cls-1{fill:#3e4445;}</style></defs><title>Artboard 1 copy 6</title><path class="cls-1" d="M175.85,97.2h-1.5l-.5.25-.25,9-2,.26v-7l-1-.25-1,.5-.5,1.75h-3.26l-.25-63.14-.25-.5-8.52-8.52-2-1.75-1.5-1.75-1.25-1-1.25-.25-.25.51-.26,24.55V75.91h-3.5V34.57H98.18l-.25.5V75.91h-1l-1.26,0v15.8h17.54v51.37H84.9l-.5,5.76v47.85l.75-4v6l-.25.5-1,2.5v2.51l.75,2.26,1.5,2.25,1.76,1.5,2.5,1h3l2.5-1,2.26-2,1-1.5,1-2.26v-2.5l-1.25-3.51-.25-5.26-.25-.76h46.35l-.25,6.52-.75,2.5v3.51l.5,1.51,1.25,2,2.26,1.75,2.5,1h2.51l1.25-.25,2.51-1.51,2-2.25,1-2.51v-3.26l-1-3.25-.25-5.77,1.26-.5.25,2.76v-46.1l-.51-5.51H131V91.69h17.79l.25-.25v-9h5.51l.51-.25V76.66l-.51-.5-1.75-.25V29.3l8.77,8.77,1.75,2v61.63h-3.75V100l-.26-.5h-1.5l-.5.5v6.77h-2.25V97.45l-.51-.25h-1.5l-.25.25V107l.25,1.75.5.25h5.26l.76-.25.25-4.51h9.52V108l.5,1h4.76l1.5-.5v-11Zm-30.57-17v7h-14l-.25-.25V76.66h14.28ZM116,76.66H129.5V87.18H116ZM100.18,37.07l.51-.25h43.84l.25.25V60.62l-.25,4.76H100.18Zm0,30.82h44.35l.25.25V74.9l-.25.51H100.69l-.51-.25Zm-.5,8.77h14.53V87.18l-14.53.25Zm-2,127-.75,2.25-1.51,1.76-2,1H90.66l-2.25-1.25-1.51-1.76-.75-2,.25-2.26,1.51-2.5,1.5-1,1.75-.76h1.76l1.75.76,1.76,1.5,1.25,2.51Zm-10-7.77v-3l.25-.26h8.27v3.26h-.76l-2-.75H90.66l-1.5.5Zm69.4,9-1.5,2.26-2.51,1.5h-2.76l-1.25-.5-2.25-2-.75-2v-2.25l.25-1,1-1.75,1.25-1,2-1h2l1.75.76,1.76,1.5,1,1.5Zm-9.77-8.77v-3.25l.25-.26h8.27v3.51l-2.76-1h-3l-1.25.5Zm10-6.51-.25.25H86.9V167.36h70.41Zm-1-44.35,1,.25v20.3H86.9v-20.3l.51-.25ZM115.72,135v-6.18H128.5v14.2H115.72v-8ZM128.25,96.2l.25.25v21.8l-.25.25H116V96.2ZM116,94.7v-3H128.5v3ZM126.74,120v1.51l-.25.25h-8.77V120l.25-.25h8.52Zm1.76,3.26v4H115.72v-4Zm19-33.07-2.51.25H97V77.16h1.14l.25,11.27h48.11V78.16l.25-.75,1,.25Zm6.15-9.31h-4.23v-3h4.23Z"/><path class="cls-1" d="M107.7,150.57h28.56l1.76.25.25.25v9l-.25.25-14.53.25H109.2l-2.5-.25-.25-.25v-9Zm.5,1.76-.25.25v6.26l.25.25h28.06l.25-.5v-6.26Z"/><path class="cls-1" d="M113,38.83l22.3.25V61.63l-.25.25-21.3.25h-9.52l-1.25-.25-.25-1V39.58l.25-.5Zm-8.77,1-.25.25V60.87l29.32.25,1-.25v-21Z"/><path class="cls-1" d="M121.11,100.51h2.25l2,1,1.26,2V106l-1,1.76-1.26,1-.75.25h-3l-1.5-1-1-1.51-.25-.75v-2l1.25-2Zm1,1.25-1.76.76-.75,1V106l1.25,1.26.51.25h2l1.25-1,.5-1-.25-2-1-1.25Z"/><path class="cls-1" d="M139.52,56.11l1.75.5,1,1.26v2l-1,1.25-.75.51h-2l-1.76-2,.26-2.25,1.25-1Zm-.75,1.51-.5.5.25,1.75.25.25h1.5l.25-.5v-1.5l-.5-.5Z"/><path class="cls-1" d="M121.73,153.08l1.76.5.75.75.25,2.26-1.51,1.5h-2l-1.5-1.25-.25-1,.5-1.5,1-1Zm0,1.25-.75.75v1.25l.25.26h1.5l.25-1.26-.75-1Z"/><path class="cls-1" d="M137.27,39.83h4.51l.25.25v2.5l-.25.25h-4.26l-.5-.25v-2.5Z"/><path class="cls-1" d="M108.45,69.39H110l1,1,.25.51v1.75l-.75.75-.5.25h-2L106.7,72.4V70.65l1.25-1Zm.25,1.51-.5,1,.5.5,1-.25-.26-1.25Z"/><path class="cls-1" d="M137,47h4.76l.25.25v2.5h-5Z"/><path class="cls-1" d="M135.76,69.39h1.51l1,.75.25,2.26-1.25,1.25h-1.76l-1.25-1L134,70.9l1.25-1.26ZM136,70.9l-.75.75.5.75H137l.25-1.25Z"/><path class="cls-1" d="M137.27,51.85h4.51l.25.25v2.26h-5V52.1Z"/></svg>