<svg id="Layer_1" data-name="Layer 1" xmlns="http://www.w3.org/2000/svg" viewBox="0 0 236 236"><defs><style>.cls-1{fill:#3e4445;}</style></defs><title>Artboard 1 copy 7</title><path class="cls-1" d="M183.06,197.13l-1.85-1.85-3.46-1.84-.23-2.31-.69-1.15-5.08-5.08-1.61-.92H117.77l.23-13.15,1.85-.23.23-.23V144.3l2.07.92.23,19.84.23.23h42l.46-.46.23-19.84,1.16-.23.69-.46.23-3.46,2.77-.46,6-.23,1.38-.23L178,139l.46-10.61V117.54l-.23-.46-3-.23V88.47L175,78.32l-.46-1.38-1.84-3.46-3-5.31-2.54-4.85-.92-.92h-86L79,63.56l-1.38,2.53-2.08,3.69-3.46,6.46-.46,1.16h0l-.46,1.15v38.07H64.63V73.09l1.62-.54.23-3.23V58.71l3,.23h3.46l.46-.23.23-13.15V29l-.23-1.38H66.48L66,28.72V47.18l-.22,0v.06H52.14l-.2.2L51.73,73H54V49.25l9.92.23.17,0,0,0L63.94,60.1v6.22l.23,2.31-.23.46.23,1.62H54V69.64H51.94v2.91l.46.23,3.93.23v43.61H54.25v58.82l.23.93H73.71l.23-.93,17.76-.23.69-.23,1.39-1.61,2.07-2.31h.7V184H73l-7.15,7.84v1.85l-1.61.23-2.77,1.38-1.62,1.85-.92,3,.23,2.54.46,1.38,1.62,2.31,1.84,1.38,2.31.69H67l1.15-.23,2.31-1.15L72.55,205l1.16-2.3v-3.23l-.47-2.08V193.9l6.23-1.62,5.31-.23,41.29-.15v.15h33.69l4.38.23,4.15,1.16,2.54.23-.23,2.54-1.15,4.38.23,2.54,1.38,2.77,1.85,1.61,2.3.92h3l1.62-.46,1.61-1.15,2.08-2.31.92-1.84v-3ZM68.32,29.64h3l.23.23V56.63h-3l-.23-5.3Zm94.2,133.57H125.07a.52.52,0,0,1-.61-.65q0-4.71,0-9.4v-4.79c0-.77,0-1.54,0-2.31s0-1.33.85-1.34c12-.1,24.09.1,36.13,0,.43,0,.94,0,1.18.39a1.3,1.3,0,0,1,.14.75ZM165.06,142l-.46.46H129.3l-8.31-.23-.23-1.38h44.3ZM73.71,110.62l4.38.23.46.46,1.62.92H83.4l1.15-.46,1.84-1.61.93-1.85v-2.77l-.46-1.15-1.39-1.85-2.31-1.15H80.4l-.93.46-1.84,1.39-4.15.23V96.31l3.92.24,2.77,1.38H83.4l1.15-.46,1.84-1.62L87.32,94V91.24l-.23-.69L85.7,88.47l-2.3-1.15H80.17L77.4,88.93l-3.92.23V86.48h0V82.22h4.77v0h89.19v-.06h5.5v5.57h0v29.1l-99.43-.23Zm-.23-2.31v-2.54l4.84-.23.46-.23,1.39-1.15,1.15-.69H82l1.15.46,1.16.92L85,106v1.85L84.32,109l-1.62,1.16H81.09l-2.31-1.62h-3ZM73.24,79l1.62-3.23,3-5.3,1.61-3.23,1.62-2.54h84l.46.23,2.77,5.31,3.46,6.22,1.16,2.77-.23.93H73.82l-.58-.23Zm0,12.92.24-.46H76v-.11l.91,0,0,.15h1.84l.69-.69.46-.93,2.54-.23,1.39.7.92,1.38v1.85l-.46.92-1.85,1.15-2.07-.23v.06l-1.62-1.21L73.48,94l-.24-.23Zm-3.46,36v-8.77l27.69.23,3.23-.23h75.44v10.38H75.78l-6-.23-.2-1.24ZM58.63,73h3.69l-.23,3v40.61H58.86l-.23-43.14Zm-2.3,58.37h1.61l.69.46v30.92l-.23,1.84-1.15,1.15-.92.23ZM71.4,174.29H56.56v-4.84l3.69-3.7.69-1.38V130.69l-.23-.23v-.23l-.3-.07-.16-.16-3.69-.93v-9.92H67.48v11.54l.23.92,3.69,3.69Zm0-42.22,1.15-.23H176.39v6.66l-8.33.26H137.15l-59.06-.23-3.69-3.69Zm24.45,36.45-1.15.69-2.31,2.54-1.15,1.16H73.71V137.84h.46L75.32,139l1.85,1.62,40.6.23V164.6l-.21,3.69Zm19.61,2.08-.23,13.15L98.85,184V170.6ZM71.4,202.2l-.23.7-1.39,1.84-2.3,1.39H65.17L63.09,205l-1.15-1.38-.69-1.85.23-2.53.46-.93,1.15-1.38,2.31-1.16h1.39l1.84.7L70,197.59l1.38,1.85Zm-2.31-7.84.23-.92,1.62.23-.23,1.38H70ZM79.47,190l-.69.23L73,191.59H68.63v-.23l4.85-4.84,1.15-.7h4.15l.69.24.23,1.15Zm82.13-.46H126.07v.23H82.24l-.46-.23v-3.46l.69-.24h36.94l0,.24h42.45Zm7.85,1.84L164.37,190l-.23-.46v-3.46l.23-.24H169l.7.24,1.84,1.84,2.77,3,.23.92h-.69Zm5.3,2.08v.69l-.46.46-1.15.23-.23-.69.46-.69Zm7.15,8.76-1.15,2.31-1.38,1.15-1.85.7H175.9l-1.38-.46-1.15-.93L172,203.13l-.23-2.54.69-2.08,1.39-1.61,2.07-.92h1.85l1.15.46,2.08,1.84.92,1.85Z"/><path class="cls-1" d="M126.77,103.24l1.84,3.69,1.85,1.61,2.3,1.15,3.47.7h4.61l3.69-.46,4.15-.93.69-.69h1.16l2.07.46,1.16-.23.92-4.38,1.15-5.77-.23-1.15-3-.69-.23-1.85-.46-.92-1.61-1.39-3-1.61-4.85-2.08L139,87.78h-5.76l-2.31,1.15-1.62,1.62-1.84,2.53-.92,2.31-.47,2.77.24,3.46Zm24,2.07.69-2.07.69-4.16.23-.23,1.16.46-1.16,7.16-1.61-.24ZM128.61,97l.23-.93.93-2.07,1.38-2.08,1.61-1.38,2.31-.93,3.46.47,3.69,1.15,5.54,2.31,1.85,1.15.46,1.15-.23,5.08-.23,1.15-.93,3.23-.92,1.16-1.38.69-3.93.69h-6.92l-1.15-.23-2.08-.69-1.38-1.16-1.39-1.84-.92-3Z"/><path class="cls-1" d="M92.62,105.74V106l.7,2.77h1.15l.92-.23,1.32-.16.83.14.39.25,1.61.69,6.23.93h4.16l1.84-.23,2.77-.7,2.31-1.15,1.61-1.61,1.39-2.54.92-3.23V97l-.23-1.16-1.16-2.77-2.07-3-2.08-1.62-1.84-.69h-5.31l-3,.69-3.46,1.38L97.93,91.7l-2.54,1.62-.69,1.84-.46,1.39-3,.92.23,3.23ZM97,95.16l.46-.69,3.23-1.62L105.08,91,109,89.85h3.46l1.62.7,1.84,1.61,1.62,2.54.92,3v2.54l-.46,1.84-1.15,2.77-1.39,1.62-2.77,1.15-3.23.46h-2.3l-4.62-.46-3-.69-.25-.3,0-.16h-.15l-.77-.93L97.47,103,97,99.77Zm-2.54,3.69.23.23.69,3.69.92,3.23-.13.28-1.48.19-.46-2.54-.29-.39-.4-1.92-.23-2.77Z"/></svg>