<svg id="Layer_1" data-name="Layer 1" xmlns="http://www.w3.org/2000/svg" viewBox="0 0 236 236"><defs><style>.cls-1{fill:#3e4445;}</style></defs><title>Artboard 1 copy 8</title><path class="cls-1" d="M109,173.5l-3.27.87-2.16,1-1.3,1.13-.62,1.25v1.4l.3.62.79.93,1.87,1.19,2.54.83,3.1.69,4.66.51h6.25l3.63-.34,2.93-.53,2.93-.85L133,181l1.11-1.11.46-1.41-.14-1.05-.79-1.27L131.91,175l-2.18-.83-3.62-.86L122,172.8h-7.81l-2.06.17Zm6.54,1.7h4.92l3.87.35,3,.53,3.1.92,1.8,1.12-1.35,1.29-2.45.88-3.18.71-2.83.36h-8.59l-4.06-.53-3.36-.88-2.27-1,.3-1.16,1.9-.95,3.2-.9,3.72-.53Z"/><path class="cls-1" d="M46.93,149l-2.43,3.46L43,155.33l-.86,2.07-.68,2.74v1.65l.34,1.67.85,1.84L43.8,167,45,168.16l2.76,2.24,3.79,2.23,4.68,2.08L57.86,176l2.78,1.9L64.78,180l4.67,1.72,4.69,1.39,6.6,1.57,6.79,1.22,8,1,8.18.69,6.79.36h15l4-.18,5.39-.34,7.15-.71,7.66-1,7.31-1.39,6.26-1.57,5.38-1.74,3.63-1.56,2.77-1.38,2.76-1.72,1.62-1.43,5.06-2.27,2.41-1.38,2.6-1.72,1.53-1.37,1.89-2.07,1.14-2.15.51-2.22v-1.65l-.67-2.67-1.22-2.94-1-1.7-2.43-3.65-3.3-4-3.46-3.46L179.68,139l-4.7-3.81-2.08-1.57-3.47-2.43-3.83-2.44-4.34-2.43L158,124.61l-3.47-1.56L150,121.14l-6.6-2.26-5.21-1.39-4.87-1-5.9-.87-3-.2.18-31,.76-1.13.84-2,.32-2.18-.18-2-.68-2.18-1-1.67-1.52-1.5-1.85-1.17-2.12-.71-1.4-1-1.61-1.61-1.38-1.2-1.41-1.41L112,63.32l-1.41-1.41-1.38-1.2-1.76-1.77-1.38-1.2-1.33-1.39-.52-1.56-.87-2.25-1.18-1.67-1.33-1.15-1.7-1L97,48.06H94l-2.21.68L90,49.81,51.79,50l-.5.25-.44,1V62.46l.13.36.85.72,37.36.18.46.45,1.65,1.16,1.88.68,2.32.34,1,1,1.38,1.21,2.06,2.07.85.42v.35l.24.14,2.1,2.1,1.37,1.2,1.59,1.59,2.19,2,.19,2.07.34,1.33,1,2,1.08,1.44v.12l.18,30-5.22.56-5.74,1-6.25,1.57-5.91,1.91-5.73,2.26-3.65,1.73-2.78,1.39-3.83,2.09L68.47,130,65,132.27l-3.3,2.43-3,2.26-3.82,3.31-4.52,4.52-1.54,1.88Zm133,20.48-.77,1.86-1.92,2.09-2.31,1.79-3.72,2-4.39,1.77-5.62,1.75-6.65,1.58-5.78,1.05-7.69,1-7.52.7-6.12.35-5.59.17h-7l-6.28-.17-8.39-.52-9.44-1.06-6.48-1-6.64-1.4L72,179.77l-4.2-1.4-4.4-1.93-3-1.76-1.78-1.44-1.32-1.33-1.09-2.09,0-2.44.94-1.84,2.1-2.09,2.51-1.63,3.69-1.93,4.22-1.59,4.38-1.4,6.31-1.58,6.47-1.23,7.52-1,7.17-.7L107,152l4.37-.17H125l7.17.35,6.29.52,7.34.88L154,155l6.65,1.58,5.26,1.58,3.69,1.4,2.81,1.22,3,1.77,2.31,1.78,1.34,1.53.9,2.07ZM86.62,58.5,87.25,61H53.42V52.55h34l-.81,3.25Zm9.62,5.27-1.73,0-1.84-.57L91,62.05l-1.22-1.57L89,58.72l-.18-1.8.39-1.9.87-1.74,1-1.2,1.75-1,.92-.38,1.13-.19,2.32.2,2.19,1.12,1.47,1.5.7,1.39.38,1.22,0,2.58L101,60.85l-1.12,1.28-1.68,1.1Zm13.34,10.65-1,1-4.11-4.09-1.37-1.21-1.59-1.59-1.38-1.2L99,66.16v-.71l1.93-1.16L102.35,63l1.36-2.4.59-.87L106,61l2.66,2.65,1.37,1.2,3,2.81L114.38,69l.5.25v.8l-2.82,1.5-1.28,1.15Zm1.41,6.1-.18-2.33.41-1.72.87-1.57,1-1.18,1.83-1.09,1.33-.37,2.58,0,2.19.94,1.48,1.31.9,1.48.55,1.85,0,1.85-.57,1.84L122.44,83l-1.68,1.46-1.86.72-2,.19L115,85l-1.83-1.12-1.46-1.67Zm10.88,6.4v28.32h-8l-.39-.4V87.18l2.19.44,2,.17,2.74-.52.94-.35ZM169.43,145l-5.15-1.89-4.88-1.56-6.61-1.73-5.91-1.23-6.44-1-6.26-.69-8.18-.53H114l-6.61.35-7.84.7-7.83,1-8.37,1.4-9.06,1.91-7.66,1.92-6.09,1.74-9.2,2.86.8-1.57,4.71-4.7,3.86-3.34L63,136.9l3.31-2.45,3.16-2.1,4.38-2.64,4.2-2.27,4.72-2.28,4.74-1.92,6.31-2.1,5.25-1.41,6.3-1.23,6.14-.7,2.81-.18h7l5.09.35,5.26.7,5.26,1.06,6,1.57,5.6,1.93,3.86,1.58,4.21,1.92,3.84,1.93,4.74,2.8,3.85,2.45,4.9,3.68,1.76,1.4,2.46,2.1,2.62,2.46,3.33,3.32,1.6,1.95,1.91,2.26,1.77,2.65,1.59,2.81.89,2.51.18.73,0,2.26-.73,1.81-1.44,2-1.62,1.45-1.78,1.25-3,1.76-1.05.37-.2-3.58-.66-1.82-1.37-1.87-.32-.64-.67-.35-1.57-1.4-3.09-1.88-4-1.9-4.32-1.55-4.69-1.39-5-1.21-7.48-1.4-7.83-1-7.83-.7-5.92-.35-5.58-.17h-7.49l-9.23.35-8.53.69-8.36,1.05-7.83,1.39-6.61,1.57-5.56,1.73-4.68,1.92-3.28,1.73-2.4,1.71-1.71,1.55L55,164.64l-.83,1.68-.32,1.32v3l-1.54-.51-2.69-1.6L47.46,167l-2.19-2.22-1.09-2-.17-.7v-2.24l.71-2.32,1.42-2.84,1.33-2.06.8-.57,6.27-2.27,7.7-2.45,7.69-2.1,8-1.92,7-1.4,8.56-1.39,8.74-1.06,6.3-.52,9.09-.35h4.89l5.43.17,7,.53,7,.87,6.12,1.05,7,1.58,6,1.75,5.6,1.92,1.7.68h1.17l.47-.48v-1.08Z"/><path class="cls-1" d="M129.11,167l3.28-.86,2.38-1,1.65-1,1-1.12.46-1.26-.15-1.39-.8-1.27-1.33-1-2-1-2.56-.85-4.15-.85-5-.53h-7.47l-5.19.53-4.15.86-2.58.86-2,1-1.32,1.15-.78,1.26v1.73l.45.9,1.15,1.15,2,1.2,2.9,1,4.14.86,4.5.51h9l1.89-.17Zm-8.65-1.52h-4.91l-4.39-.35-4.22-.71-3.18-.87-2.25-1.14-.94-.94,1.05-1.25,2.79-1.21,4.42-1.08,4.59-.52h9.29l4.4.53,3.88.88,2.84,1.06,1.25.82.26,1.1L133.49,163l-2.27.87-3.71.89-4.23.53Z"/><path class="cls-1" d="M143.71,166.35l-2.92.86-1.95,1.15-.63.77-.46,1.25.15,1.23.45.75,1,.83,2.37,1.17,3.24.85,4.14.51h7.11l3.27-.34,4.31-1,2-1,1.12-1,.63-1.25v-1.21l-.45-.91-1.29-1.13-2.75-1.2-4.28-.84-4-.35h-4.33l-2.42.18Zm12.5,1.7,3.89.52,2.66.71,1.77.78.35,1-2.47,1-2.8.7-2.83.36-2.47.17h-3.16l-4.22-.35-3.53-.7-2.29-1-.9-.89,2.22-1.1,3.74-.91,2.83-.35Z"/><path class="cls-1" d="M73.58,166.52l-2.69,1-1.63,1.15-.62,1.08L68.48,171l.62,1.4,1,.81,2.38,1.17,3.24.85,4,.51h7.46l1.7-.17,4-.7,2-.68,1.66-.83,1.12-1,.62-1.25v-1.06l-.29-.75-.63-.78-1.52-1-2-.84-4.12-.84-4.14-.35H81.36l-4.16.35Zm13.36,1.53,3.89.52,2.66.71,1.78.78.34,1-2.47,1-2.79.7-2.66.36-2.82.17h-3L77.66,173l-3.53-.7-2.28-1-.89-.89,2.2-1.1,2.7-.73,4-.53Z"/></svg>